<mxfile host="65bd71144e">
    <diagram id="iu41YSKFhQqd8PUf1_AV" name="Page-1">
        <mxGraphModel dx="1627" dy="568" grid="1" gridSize="10" guides="1" tooltips="1" connect="1" arrows="1" fold="1" page="1" pageScale="1" pageWidth="850" pageHeight="1100" math="0" shadow="0">
            <root>
                <mxCell id="0"/>
                <mxCell id="1" parent="0"/>
                <mxCell id="2" value="" style="fillColor=#F6F6F6;strokeColor=none;shadow=0;gradientColor=none;fontSize=14;align=left;spacing=10;fontColor=#717171;9E9E9E;verticalAlign=top;spacingTop=-4;fontStyle=0;spacingLeft=40;html=1;" parent="1" vertex="1">
                    <mxGeometry x="-820" width="800" height="470" as="geometry"/>
                </mxCell>
                <mxCell id="3" value="" style="group;fontStyle=1" parent="1" connectable="0" vertex="1">
                    <mxGeometry x="-745" y="180" width="179.00000000000003" height="135" as="geometry"/>
                </mxCell>
                <mxCell id="4" value="" style="strokeColor=#dddddd;fillColor=#ffffff;shadow=1;strokeWidth=1;rounded=1;absoluteArcSize=1;arcSize=2;fontSize=10;fontColor=#9E9E9E;align=center;html=1;" parent="3" vertex="1">
                    <mxGeometry width="160" height="60" as="geometry"/>
                </mxCell>
                <mxCell id="5" value="&lt;font style=&quot;font-size: 11px;&quot; face=&quot;Georgia&quot;&gt;&lt;b&gt;Storage&lt;/b&gt;&lt;/font&gt;" style="text;strokeColor=none;fillColor=none;html=1;align=center;verticalAlign=middle;whiteSpace=wrap;rounded=0;fontSize=20;fontFamily=Architects Daughter;" parent="3" vertex="1">
                    <mxGeometry x="54" y="2" width="60" height="30" as="geometry"/>
                </mxCell>
                <mxCell id="6" value="&lt;font color=&quot;#b3b3b3&quot; style=&quot;font-size: 11px;&quot; face=&quot;Georgia&quot;&gt;azure blob&lt;/font&gt;" style="text;strokeColor=none;fillColor=none;html=1;align=center;verticalAlign=middle;whiteSpace=wrap;rounded=0;fontSize=20;fontFamily=Architects Daughter;" parent="3" vertex="1">
                    <mxGeometry x="65" y="26.999999999999986" width="60" height="30" as="geometry"/>
                </mxCell>
                <mxCell id="7" value="" style="shape=image;verticalLabelPosition=bottom;labelBackgroundColor=default;verticalAlign=top;aspect=fixed;imageAspect=0;image=data:image/png,iVBORw0KGgoAAAANSUhEUgAAAO4AAADUCAMAAACs0e/bAAAAeFBMVEUAeNf///8Ac9YAcdWGs+cAdtcAb9Woyu5VmeCew+y00fAAddfy+f260PAzi9wAbdS+1vIhg9rs9PwbfdhyqeQAatT3+/7R4/bk7/rb6fh/r+Yvh9tfneFloeLV5veJtujH3PSRu+pPld+bwOvC2fN4q+Wlxu1FkN4Co8F8AAAMpElEQVR4nOWdbVviOhCGS0uLSzlGYAFFUVAX/v8/PECb9CVvM8mkqZfPt3WRcpuSZibPTJLJr1Li8buL/TSC9otIuHuWRhDbx8F9ZkkUsecouA9lHNzyIQbuLtLgXod3FwH3NY+Fm78OjzuPNrjX4Z0PjhsP9qahcU9ZTNrsNCzuoohJe+V1XGs44v5N4+Kmf4fEfYk4T1ViLwPifkZ7CHHln8Phfkcf3Ovwfg+Gu4w+uNfhXQ6Fe448LVcqzsPgbkcwtndtB8GdRn4IcaXTIXBXm9icXJvVALhvkcJcWeVbeNx4Ya4sfOCLxn0cy0R1Vf4YGnc+iocQFzrwxeLGBuwrLG7cMFdW9hUSdzGSR26jEhf44nD/jQ43+xcON36YKwsX+KJw44e5snCBLwb3OMLBvQ7vMRDuGMJcWagkOwJ3NqoVRqNiFgR3lGN7Ux4C92NkK4xG2Qc97mqkt/JNBTjwBeMeRrfCaJQeqHHfR/kQ4mLvxLhjCnNl5Rda3KdRD+51eJ9IcdejHtzr8K4pcb9G+xDiAga+INwFIPmYpxmxcDdUDgp8Qbh72+Dm2eb13/k/Wr2hbqkM5C6D4D7bEulseXbYwLDqAcW7gbjLILgWv1i6djbCWPSJWdqA3GUAXEuYy/C5fLAumPGFBL4AXLNfjJ28oQy6IMYXEvjacc1+sQKZ+cTqEcELSLLbcY1XyBwdMHBheAEwthcYE+lujgGcXuE7jnZ3mQ13ZZwsPLynYG2XCF5b4GvDNfrF2hus2/PhkUyv7fQTgtfqLrPgmhPprTDznGZlTqbiT/tDLOApUFuS3YJ7MV2o9c2d0gaIWQd3sgAHZLbA14xrDnOblNiR2K/Rw50sEiivJfA145rvokIsY6id633cyQo6vpZnhRHX4hdjfB4krzmRcCfP0PE1u8tMuFvLijXjL5xTR/8y7uQ5B/KmpuDMhGsLc0X2fjYA7uSlhPFmJneZAffZlkgfFnfyAsxvFIbA14Br9YsNjHvlBf2yyV2mx7X7xYhwy1TKTKlxJ++w6xiWtnpc+8MFgVtmVb2i9B8pSw5fs/n59JkWzd2kwZ28gzaqDIGvFhdQFgXHZYfV4qbtsvcO2VSMxPbpUPC/sA53sgPx6gNfLe7a/q5Q3DQVS53uuiVfd2eVFU9eaHGBhgltkl2HC/GLAXHZW/Mk7ODmiZQbrrei9LgwXm3gq8FdQCYFEG6Ztu+sDq5i366OwAy4k2/I/ZxqkuwaXFBZFAQ3++xcuI1bnBQXriZIE+7kD2AodIGvGvcFFOEAcMveZVu4whB1Xue52AOo3sqIC1qyapLsalyYXwyAm/VcMS1c/nQ8b24/E/lbItxcnWRX4gL9YhDcOj7Zz/q4PFLjS9Wyns/utsvMFNbAAhJ1kl2JC0yWgHFnyUbC5ZMnnyX4YN8Xc9lpsZKEw1UHvipcqF8MeDMfX1mSzfu4HE+8sk6NbO8Xz5ikDZ/zgOGm0l2mwgUnhuy4yfp4Ydf3k3HLmo5PiqKuQHdrlUhcpbtMgQsuiwI9d6uFoYTLc2grMU3wqqA3KlyVu0zGNSfS20KECBJueejj8p/sNX9tNK4qyS7jwv1iPrjpvo/L5xbdKgKPq3CXSbjv8ByqDy6fmGVc3ZvhcZONtEqVcBF+MS/crwFw5SR7HxfT/cPrZtbi6mgccOUkex8X4xcbP6601ujhovxio//uyovvLq4tkd5VmJn5TImbZN0kexcXVxZF+9zluLo8iiNu113WwUXu9fjgyqsqXlt+0KS33XB7SfYOLrK/mA9usuzj8v1E3ZayI243yd7GxZZFeeFmfVweIpGFCL33lXCxZVFeuKyaQxZiEVenW7a6t3DF7TyMWrjosig/3Po71f9U2hyoK24n8G3h4t4k8cTlX9W/9e/ybegn3R/dGbfdT6TBxZdFeeGmdTS6qLYrxC2nm5g9cFuBr8CFh7lCXrjC0fd0z0Ru6tXtVjtdeoxuE/gKXIeyKAhubdnnqbl1cf/n7X8Kvnz/XhZFwr9fJ+3H8MBtAl+O61IWBcBNP+qUYv31qf7xdGNqNb1osoyGHT4P3GZ7huMa/WIaOaTV6zv2PoSKXWftUyjxwxWBb43rVBaFSKt3Va0tFD1NLoZlnQ+uCHxrXKeyKOfRrZdS6aW3T2esLfHC5WVVFa4u6LK8hx03VZbW8pVjWU4by+Z2vjR+Ci9cHvjecXFhrhBoZlb9sLllU7ben793x/9OD8ziI/LDrd1ld1xrWZRaNM6bNCtYAagJ88StAt8brtUvplE4X5VKnrhV4HvDdW2j/bNw72VViUd/sZ+Fe3/OJx5m5B+Ge3OXJZOZsxn5h+EmbPb7cH/ZzfxrpqrN7jc+iH7bMiP8IjJPC3ZdKXr1kSFbRNbhNlpA3Dxjn1/fu91xvk+YfKUceG/RhQiODaZhuOVy3iQ+X6Z5b6LIXuuE89HyGegCwHDh/fVTPna3HLedfgl5U8uuTTDzN6IL74Mlb67XkaqYWs/5bNmE90Fxe8mbUKm5JJWNtuI5n7N2hVNI3H5qLlTitfGdNslXnlvP151UZEhcKfEaJq0utiveb/l0zl4bQPKuqS0grpxWD7Npwng2vcrN1Lt+i+pO4uUg2+C4ik2TEFti3IDBl6ncblNte9W4s3VoXNWWWIgNz6yeD3kFP0+kP91ff8c8LovguMoNzwDb2UX9CYVbq765K8vL9RH18sDyJDSuZjub3KwgdkWEf4nXc99fXx727HZXB8bVmRXIrSiimEdUJfFt3uopn1c/DoyrtaJQG41E/7e/4n2L6tqd0uCwuHqjEbWNTOyHtXCryavjzguLa7CREZsE9bgfg+GaTILEFlD+TZVxO77HsLgmCyitwXcEuGaDL619Oz6uzb5Nas6Pj2s151OWXuinqoFw7aUXlIU1KtzqOLuPYXABhTWI06SsuHyeaGq9a1vvfpAHEaRsirAoTpxtJkaXr6IPg6yqQEVxdCWPOV+/idHlNdOdzFgoXFjJI2FBK38MiHs3rc+X6fxBQ+ECC1rpypX5kkb8f52t6u45BsIFlyuTFaPzBCA/U4E3o+nWzoTBVTe+CdpqQMxV9eKlUFZXhMFFtBogaySR8lfckjRJUc/L3Xs5D4KLaSRB1iakEA1gzssy+aq/yg/1HzNNbi0wS47Lrv9ISu1TH4eLahNC1QRGeS7hiQ+j8soPuhsLhYtrAkPW4kfRxWfH7xx1lyVd6T0SF9fih6qBkzw/rsToqXG1CRUMrvaUhNDtudJL90v0vLbgkowuuj0XWfO1nB2eRAJlN20ZefPdQtZW1zYDg+vQfI2utV5ZlJ/Tr9mfj7eeNaNut9eV9qpwXJfWeqSNE/M0zbLU75xiOK5T48SYbTFVAuO6tcWM2fRUSQHFdWx6Opla3ndY3ByIazww3diw2LK0EiviQXDFLq2tK6Vrw2JrO2r+xjYHGIWa6dZc9OTejtoW+Io29foqVDo1bZe1C5GbfJqN21rJi6f5W/hDAjciz2a0gLFvD1zzWwuniYttB6mNuEe3pm+O30EBlmMgRHP1yTHzW0NYlG9O4lLGidnzGAhz4NvczZPnC6M+Ok2oYI+tdZJpV8f3kA/zbdqZF1bzP4H01E6PG/No3ke4mANf86wfRKaHhf8BPbbjlyDHs1HK7O2z/rrn4VpDnL/UlvHJSHK4ljnwTVHnsPvK2Fqd5ug0S5I9ewSdJkkic4YFcvQVANfiLisTZb4+gMyHHpnCXCEIru1QS/ZmebiTaLY2L93IDrW0llWVm8s86BS93X2Uls9Ad2Qp4EDaPGPry0MgfT5mzLooJzyQFuYuozs5TZL94sZu7Fjc8R8mDXz+A3F/2VHhTmVVw4n6IHinsqrhpNho9MN1KasaTAq/mC/uaoBso6sKW5iLx3UoqxpKKr+YNy7YXTa4VH4xf1x0WdVAUvrF/HHRZVXDCBLmOuFiy6qGEeT8dydcoLtsWOWodAoK15xkjyOGijxRuMiyqiGU/UMB4HAXo8MtcZkyHC7IXTaktH4xGlx8CXdgYT8+8vXzUa01AIl0P1xMWVVwKQ21tLjOvcsCCJJI98RFlFWFVgkOcz1wV/CqucDagMNcD1x4WVVgGf1idLjbsUxWJr8YHa5j7zJqOTkHXHBHEfi6baQ74X6P4GFk8YtR4o4g8MWFuZ648QNfm1+MFBdWVhVQVr8YLe4i8uScORpCHHEjB752vxgxbuTA1/lTu/5izMAXHeb647o37fYWKpFOhRsv8MWHuQS4zk27fVWqC69D4yJ7l5EJl0gnw53smapmMbQYyC8WAHexn0bQ3sdy6oP7A/U/DlblX4mjmR4AAAAASUVORK5CYII=;" parent="3" vertex="1">
                    <mxGeometry x="11" y="13.97" width="40.08" height="35.7" as="geometry"/>
                </mxCell>
                <mxCell id="8" value="Ingest Data" style="rounded=1;absoluteArcSize=1;arcSize=2;html=1;strokeColor=#4284F3;gradientColor=none;shadow=0;dashed=1;fontSize=12;fontColor=#9E9E9E;align=left;verticalAlign=top;spacing=10;spacingTop=-4;fillColor=none;dashPattern=1 2;strokeWidth=2;" parent="1" vertex="1">
                    <mxGeometry x="-545.25" y="30" width="190" height="280" as="geometry"/>
                </mxCell>
                <mxCell id="14" value="sink" style="rounded=1;absoluteArcSize=1;arcSize=2;html=1;strokeColor=#4284F3;gradientColor=none;shadow=0;dashed=1;fontSize=12;fontColor=#9E9E9E;align=left;verticalAlign=top;spacing=10;spacingTop=-4;fillColor=none;dashPattern=1 2;strokeWidth=2;" parent="1" vertex="1">
                    <mxGeometry x="-341" y="30" width="190" height="280" as="geometry"/>
                </mxCell>
                <mxCell id="15" value="Data sources" style="rounded=1;absoluteArcSize=1;arcSize=2;html=1;strokeColor=#4284F3;gradientColor=none;shadow=0;dashed=1;fontSize=12;fontColor=#9E9E9E;align=left;verticalAlign=top;spacing=10;spacingTop=-4;fillColor=none;dashPattern=1 2;strokeWidth=2;" parent="1" vertex="1">
                    <mxGeometry x="-759" y="30" width="190" height="280" as="geometry"/>
                </mxCell>
                <mxCell id="16" value="" style="group" parent="1" connectable="0" vertex="1">
                    <mxGeometry x="-741" y="82" width="160" height="60" as="geometry"/>
                </mxCell>
                <mxCell id="17" value="" style="strokeColor=#dddddd;fillColor=#ffffff;shadow=1;strokeWidth=1;rounded=1;absoluteArcSize=1;arcSize=2;fontSize=10;fontColor=#9E9E9E;align=center;html=1;" parent="16" vertex="1">
                    <mxGeometry width="160" height="60" as="geometry"/>
                </mxCell>
                <mxCell id="18" value="" style="shape=image;verticalLabelPosition=bottom;labelBackgroundColor=default;verticalAlign=top;aspect=fixed;imageAspect=0;image=data:image/jpeg,/9j/4AAQSkZJRgABAQAAAQABAAD/2wCEAAkGBwgHBgkIBwgKCgkLDRYPDQwMDRsUFRAWIB0iIiAdHx8kKDQsJCYxJx8fLT0tMTU3Ojo6Iys/RD84QzQ5OjcBCgoKDQwNGg8PGjclHyU3Nzc3Nzc3Nzc3Nzc3Nzc3Nzc3Nzc3Nzc3Nzc3Nzc3Nzc3Nzc3Nzc3Nzc3Nzc3Nzc3N//AABEIAIIAggMBEQACEQEDEQH/xAAcAAABBQEBAQAAAAAAAAAAAAAAAwQFBgcCCAH/xABCEAABAwICBAsEBwYHAAAAAAABAAIDBAUGERIhMUEHFDJRYXF0gZGhsRM1NrIiQlJicsHRFSMzQ1OCFjRzkpPC0v/EABoBAAIDAQEAAAAAAAAAAAAAAAAFAgMEAQb/xAAyEQACAgADBQUIAgMBAAAAAAAAAQIDBAUREiExM4ETQVFhcSIyQlKRobHRFfAUweEj/9oADAMBAAIRAxEAPwDcUACABAAgDlz2t5TgEAJOqoxszPcgDg1Y3NPigD5xs7meaADjbvseaAPvG8jrj80AdCrj3ghACjZo3clwQAogAQAIAEACABAAgDiSRsbc3IAZy1D3A69FqAb04kXUXOJhyiBkdvOeQWuvCSlvluFF+cU1vSv2n9hk+5VDuSWsH3R+q0xwla8xZZm2JnwaXov3qIuqqh3Kmf45K5U1ruMksZiJcZv6nBkkO17z/cVLYj4FTtsfGT+p89o8bHu8Su7MfAFZNfE/qdtqJm8mWQf3FRdcHxRZHFXx4Tf1Yqy4VLf5mkOZwzVUsLU+40QzTFQ+LX1S/wCDuG7A5CePL7zTq8Fnngn8LGNOdJ7rY6ea/RJ09TmwPhfpMPOVjlFxejHVdkLYqUHqh9DMJdWwjcokxZAAgAQAIAEAMKqVrqhzA4EsAzHNmu6HNRlXxySUr2xcrm5xzK2iUY2JyMeYVTtw8o18fz5EAc8yCNYTdacTx7TT0ZxJLHEM5ZGMHO5wC6CTYzkvFvj5VVGfw5u9EEuzl4CJxBbRsmeeqN36Lp3spB/iC3f1X/8AGUHeykdsvttef8zkeljh6hcOdlIdw1lNPqiqInnma8Z+CCLi13CyCJLWeKRjXueCGOy0Qd/SluMnFtJcT0eTU2QjKctyfD9kl7VsOUj3aLWkZnvWRLUdN6EouHQQAIAEACAMsxxiCqw/jxs9PlJE+jjE0LjqeNJ+XURuKZ4fDxuw+j8RbiMRKm/VcNCy2PFFqvbGilnDJyNdPL9F4/XuWS7DWVe8txqqxNdq3Mka6ggrYyyYPaftxvLHeIUK7p1+6zl+Epv3zjvKvWYDilcX09wmDj/WaH+YyK0xxz+JGKWUw+CX1/qIqbAt0Z/CmpJB+NzfUK5Y2t8UzPLK7lwaY3ODL2D/AAYT1TBT/wAur+or/jcR4L6gMGXs/wAmEdcwR/l1eP2D+NxHgvqLRYGu7z+8fSx9chPoFF42pcNSayu/vaX99CRpsAN1GruBPRDGB5n9FVLHfKi+OU/NP6Fltdkora3KESvPPNIXeA2DuCzTxNk92uhsqwGHreqjq/P+6Cl0u9vtMRkuFVHCNzSc3O6mjWVCuqdj0gjRZbCte09DOrrjKW+3y3UdIx0NAKyEkO5UpDxkXcw6E0hg1TXKUt70f4Fk8Y7bIxjw1Rs6TjcEACABAAgDFeF74ub2SP1cneX8rqJcw5vQpbdRBGohMELtdCetuK73bwGwV8jmDYyb94OrXs7lRPCU2cY/6L4Yy6HCRYKXhIrmDKqoKeXpje5h/NZpZVB+7Jo0xzWS96JKw8I9E7L21vqWc+g9rvXJUvKbO6SLlmtXfFjlvCHZzlpQVzeuNn/pR/ib/Fff9Ev5Wjwf96n13CDZhshrj1Rt/NyFlN/ivv8AoHmtC7n9v2IScItuH8Oiq3H72i30JUllNvfJfc482p7kyOqeEmc5iltsbeZ0spd5ABXRymK96RTLNm/diQVwxrfawFvHDTsP1adoZl37fNaIYCiHdr6maePunu109CtzSPlkdJK9z3na55zJ71p0S3IzOTk9Wxex+/rb2uL5wqLuXL0ZdRzI+qPSa80emBAAgAQAIAxXhe+Lm9kj9XJ3l/K6iXMOb0KWEwQtYoFJETtqmiLOwpIizsaiukWda8l04cnJcOnBXGSQmVEkJuUGTQ5sfv629ri+cLPdy5ejL6OZH1PSa80emBAAgAQAIAxXhe+Lm9kj9XJ3l/K6iXMOb0KWEwQtZfcB4Liu0H7SuunxUkiGJpyMmW0k7cs9Wral2MxrrexXxGWDwSmtuzgaAzDViY0NbZ6EgfagaT4nWln+Tf8AO/qNFh6flRXMUYdtL5aW22y3RMuNWSWPYXNbCwcp7gNWW4DetuFxNyTsnL2V934GPE4WmWkIR9p/bzJm1YPstuia00cdVIB9KWobplx58jqCz24++x+9ovIvqwNFa02dX5jufDdkqGlslqoxnvZEGHxGSrji74vVTf1LHhaJLRwX0IZ9nqsMadXZG8bos9KehlALwN5jdtz6CtPbxxPs27pePd1Rm7CWG31b14folGU1jxPbmVPFYKiKQanaAD2neMxrBWdyvw09nVpmhRpxMNrTVGd4zwY+yN45RPfNQF2Tg7W6Enn5x0pthMcrvYl735FGLwPY+1HeimOW5mFDmx+/rb2uL5ws93Ll6Mvo5kfU9JrzR6YEACABAAgDFeF74ub2SP1cneX8rqJcw5vQpR2JghceibVTx0lspKaEZRxQsYO4BeXsk5TcmephFRioodqBIrNhmZWX++XSZ7RHFI2ihc45BrWZl2vpJW29OFNda4ve+vAx0tStnN+n7LDDPDO0ugmjkA2+zcHZeCxuLjxRrTT4MUXDoE5a9mSAKdSSQ2fG/sKOaN9Dd2ucWMcCI5mjM7Nmf/boTGaldhdqS9qH3QvjpVidI8JfkmcZaP8AhW66eWXF3ZZ8+7zyWbCa9vDTxNOK07GWvgYO/avSs8yhzY/f1t7XF84We7ly9GX0cyPqek15o9MCABAAgAQBivC98XN7JH6uTvL+V1EuYc3oUsa0wQtPQGGqrjmHrbOTmX0zNI87gAD5grzN8dm2UfNnp6JbVUX5EmNoVRaZ/hHDFFdaOavuZlnJqpdGndIRG0g6zkNZJTbFYudUlCvduW/vFeGwkLE5Wb973dxxc6M2R9DeaG3vtMzKsU88AlD2TMO/VuOsbvzU6rO3Uqpy2t2qfgyNtfZONsFs79GvFGhJMNir4jZ+0sRW+z1DncUkp5JjFpFonkGeTXEa8hlnkt+HfZ0Stjx1S9EYcQu0ujVLho36kcLMKGuw/wC2pLfBXPriTxKMtaI2sJIJJJPPmre3242aNuOnf46kFRsSr1SUte70HPCjXCmw4KZp+nVytbkPsj6RPiAO9V5bXtXbXgSzGzYp08TH3bU9EKHNj9/W3tcXzhZ7uXL0ZfRzI+p6TXmj0wIAEACABAGK8L3xc3skfq5O8v5XUS5hzehSwmCFrNh4LK4VOGzSk5vpJnNy36LvpDzJSPMYbN2viPcvntU6eBchtCwG8r2BhlY3nYHVc5HR9Mj8lrxr/wDXovwZsLy36v8AI34Rddjp2DlOrI9HzVuXc5vyZVj+UvVFoS83FexjSvFLBd6VpdV2yQTNA+tH9dvhr7lswc1tOqXCW7r3GTFweitjxjv6d4XepjnuGGKumIeyWpdoEb2Oid+RzXKouMLYy8PwztklKVcl4/6KBwk3UXDEDqeN2cNEDEMt7vreeQ/tTXL6ezp2nxe8U5jd2luyuCKe5bWYkObH7+tva4vnCz3cuXoy+jmR9T0mvNHpgQAIAEACAMV4Xvi5vZI/Vyd5fyuolzDm9ClhMELWXXgtuQo8QOpJDlHWRlo/G3WPLSHesOY1bVW0u435bbs27L7zXupIh6VikrYcOXWpt9fI2KkrJXVFHM45NzcfpsPNkTmOtbZQliK1OG9rc1+GY42RosdcuD3p/lDS41UF6xnb6ETxGloBxgn2gykl1aIHPlq81bXCVGFlPTfLd0KrJRuxMYJ7o7+vcXFLRiBAIIIBBGsFAGc31z8LV8elLp01PHNJao9pbI/IEO6GguI6E4p0xUXu3vTa9F+xTfJ4aW97lrs9f0Z09xc4ucS5xOZJ2kpvpoJddd4k5RZNDmx+/rb2uL5ws93Ll6Mvo5kfU9JrzR6YEACABAAgDFeF74ub2SP1cneX8rqJcw5vQpYTBC1i9NNJTzxzwvLJY3BzHDcRrC64qS0YRk4vaRsVDjq0TWYVlTO2Koaz95Sjll/M0bwefxSCeAuVmxFarxH8MdU69tvoUOWO9Y1uc1VFCH6GQ0faANhbuGvb1704i6MHBRb/AOihq7GTckv+ErdbNacN4efDXSMnvc2RZ7NxziOeeY5gOfeqab7sTenDdBfcutopw1DU9839jRrTK+e10c0pJkkgY5xO8kBJLYqNkku5jut6wTY6VZMzi8VmGn3+7txFFUzTCVrIXMJyYwMbqGRGR0tJOaYYnsYOlpL/AGKLp4Z3TV3Eq15q7AI3RWS2ztc7VxiqlJIH3Wg5d5W2qF+utsuiMNtmHS0qj9Svu2q9mdDmx+/rb2uL5ws93Ll6Mvo5kfU9JrzR6YEACABAAgDFeF74ub2SP1cneX8rqJcw5vQpYTBC1igUkRZ21TIsUYSCCDkRsI3LumpHVp7jraSd52qSItm8WRwfZaB7dhpo/lC8jetLZLzZ6+l61xa8B8qi0wXEM3GL7cZs89Kpky6tI5eS9ZRHZqivJfg8piJbV0n5kYVYVCblBk0ObH7+tva4vnCz3cuXoy+jmR9T0mvNHpgQAIAEACAMV4XwRi1h2Z0cZH+56dZfyuolzDm9ClhMULWKBSRFnYU0RZ21SRBnYUjhs2BKsVeFqI5jShBhd0aJ1eWS8vmENjES8956jAT28PHy3ErdbhBa7fNWVTw2ONpIzPKO4DpJWequVk1GJptsjXBzlwMClcXvc93KcST1r1umi0PIt6vUSK4dE3KDJod2Fpdf7YACSayIAD8YWe/ly9GaKOZH1R6QXmj0p9QAIAEACAKtjrCcWJaRjo3throAfYyOGpwO1ruj0WrC4l0S8mZcVh1dHzRjF1tNfZ6k09yppIJM9RcPou6Wu2FParYWLWL1EVtM63pJDUK5FDOwpoiztqkiDOwpHB/brtcLW5zrfVywF3KDTqPdsVVtFdq9taltWIsq9x6HFxulfc3h1fVyzluwPdqHUNgRXTXV7i0Cy+y3fN6jBymyCEyokgjhlqJmxQRvllecmxxtLnOPQBtVcmorVlkIuT0RqHB/gSW31Ud1vTQ2oZrgp8wdA/ad08w3JLi8YprYr4DrCYN1vbnxNIS0ZAgAQAIAEACAEaulp6yEw1cEc0TtrJGhwPiuxk4vVHJRUloypXLg1sVWS+l9vRPOv90/Sb4Oz8sltrzG6HHeYrMvpnw3Fdq+CytYSaO5QSjcJWFh8s1thmsPiiY55VL4ZEVPwe4jh5FLFP8A6c7R82S0RzLDvi9OhmllmIXBajc4KxG067XJ3SMP5q1Y/DfP+Sp5fifl/B9GDMRHV+y5e97B+a7/AJ+G+f8AJz+PxPy/gViwHiSRwDqBsYP1nzx5eRJUJZjhkve+zJxy3Ev4fuiRpuDC7SEcYq6SEb8i559As881q+FNmmGVWfFJE9QcF1siIdX1lRUkfVZlG0+p81kszSx+6tPua68srj7z1LbarJbbQzRt1HFBnqLmjNx63HWVgstsses3qbq6YVrSC0JBVlgIAEACABAAgAQAIAEACAPi4ALpwEHT4gDpcAF0AQAIAEACABAH/9k=;" parent="16" vertex="1">
                    <mxGeometry x="8.000000000000028" y="8" width="41.67" height="41.67" as="geometry"/>
                </mxCell>
                <mxCell id="19" value="&lt;font style=&quot;font-size: 11px;&quot; face=&quot;Georgia&quot;&gt;&lt;b&gt;Storage/Analysis&lt;/b&gt;&lt;/font&gt;" style="text;strokeColor=none;fillColor=none;html=1;align=center;verticalAlign=middle;whiteSpace=wrap;rounded=0;fontSize=20;fontFamily=Architects Daughter;" parent="16" vertex="1">
                    <mxGeometry x="74.73000000000002" y="3" width="60" height="30" as="geometry"/>
                </mxCell>
                <mxCell id="20" value="&lt;font color=&quot;#b3b3b3&quot; style=&quot;font-size: 11px;&quot; face=&quot;Georgia&quot;&gt;Postgresql&lt;/font&gt;" style="text;strokeColor=none;fillColor=none;html=1;align=center;verticalAlign=middle;whiteSpace=wrap;rounded=0;fontSize=20;fontFamily=Architects Daughter;" parent="16" vertex="1">
                    <mxGeometry x="65" y="19.66999999999996" width="60" height="30" as="geometry"/>
                </mxCell>
                <mxCell id="21" value="" style="group" parent="1" connectable="0" vertex="1">
                    <mxGeometry x="-326" y="88" width="160" height="60" as="geometry"/>
                </mxCell>
                <mxCell id="22" value="" style="strokeColor=#dddddd;fillColor=#ffffff;shadow=1;strokeWidth=1;rounded=1;absoluteArcSize=1;arcSize=2;fontSize=10;fontColor=#9E9E9E;align=center;html=1;" parent="21" vertex="1">
                    <mxGeometry width="160" height="60" as="geometry"/>
                </mxCell>
                <mxCell id="23" value="" style="shape=image;verticalLabelPosition=bottom;labelBackgroundColor=default;verticalAlign=top;aspect=fixed;imageAspect=0;image=data:image/jpeg,/9j/4AAQSkZJRgABAQAAAQABAAD/2wCEAAkGBwgHBgkIBwgKCgkLDRYPDQwMDRsUFRAWIB0iIiAdHx8kKDQsJCYxJx8fLT0tMTU3Ojo6Iys/RD84QzQ5OjcBCgoKDQwNGg8PGjclHyU3Nzc3Nzc3Nzc3Nzc3Nzc3Nzc3Nzc3Nzc3Nzc3Nzc3Nzc3Nzc3Nzc3Nzc3Nzc3Nzc3N//AABEIAIIAggMBEQACEQEDEQH/xAAcAAABBQEBAQAAAAAAAAAAAAAAAwQFBgcCCAH/xABCEAABAwICBAsEBwYHAAAAAAABAAIDBAUGERIhMUEHFDJRYXF0gZGhsRM1NrIiQlJicsHRFSMzQ1OCFjRzkpPC0v/EABoBAAIDAQEAAAAAAAAAAAAAAAAFAgMEAQb/xAAyEQACAgADBQUIAgMBAAAAAAAAAQIDBAUREiExM4ETQVFhcSIyQlKRobHRFfAUweEj/9oADAMBAAIRAxEAPwDcUACABAAgDlz2t5TgEAJOqoxszPcgDg1Y3NPigD5xs7meaADjbvseaAPvG8jrj80AdCrj3ghACjZo3clwQAogAQAIAEACABAAgDiSRsbc3IAZy1D3A69FqAb04kXUXOJhyiBkdvOeQWuvCSlvluFF+cU1vSv2n9hk+5VDuSWsH3R+q0xwla8xZZm2JnwaXov3qIuqqh3Kmf45K5U1ruMksZiJcZv6nBkkO17z/cVLYj4FTtsfGT+p89o8bHu8Su7MfAFZNfE/qdtqJm8mWQf3FRdcHxRZHFXx4Tf1Yqy4VLf5mkOZwzVUsLU+40QzTFQ+LX1S/wCDuG7A5CePL7zTq8Fnngn8LGNOdJ7rY6ea/RJ09TmwPhfpMPOVjlFxejHVdkLYqUHqh9DMJdWwjcokxZAAgAQAIAEAMKqVrqhzA4EsAzHNmu6HNRlXxySUr2xcrm5xzK2iUY2JyMeYVTtw8o18fz5EAc8yCNYTdacTx7TT0ZxJLHEM5ZGMHO5wC6CTYzkvFvj5VVGfw5u9EEuzl4CJxBbRsmeeqN36Lp3spB/iC3f1X/8AGUHeykdsvttef8zkeljh6hcOdlIdw1lNPqiqInnma8Z+CCLi13CyCJLWeKRjXueCGOy0Qd/SluMnFtJcT0eTU2QjKctyfD9kl7VsOUj3aLWkZnvWRLUdN6EouHQQAIAEACAMsxxiCqw/jxs9PlJE+jjE0LjqeNJ+XURuKZ4fDxuw+j8RbiMRKm/VcNCy2PFFqvbGilnDJyNdPL9F4/XuWS7DWVe8txqqxNdq3Mka6ggrYyyYPaftxvLHeIUK7p1+6zl+Epv3zjvKvWYDilcX09wmDj/WaH+YyK0xxz+JGKWUw+CX1/qIqbAt0Z/CmpJB+NzfUK5Y2t8UzPLK7lwaY3ODL2D/AAYT1TBT/wAur+or/jcR4L6gMGXs/wAmEdcwR/l1eP2D+NxHgvqLRYGu7z+8fSx9chPoFF42pcNSayu/vaX99CRpsAN1GruBPRDGB5n9FVLHfKi+OU/NP6Fltdkora3KESvPPNIXeA2DuCzTxNk92uhsqwGHreqjq/P+6Cl0u9vtMRkuFVHCNzSc3O6mjWVCuqdj0gjRZbCte09DOrrjKW+3y3UdIx0NAKyEkO5UpDxkXcw6E0hg1TXKUt70f4Fk8Y7bIxjw1Rs6TjcEACABAAgDFeF74ub2SP1cneX8rqJcw5vQpbdRBGohMELtdCetuK73bwGwV8jmDYyb94OrXs7lRPCU2cY/6L4Yy6HCRYKXhIrmDKqoKeXpje5h/NZpZVB+7Jo0xzWS96JKw8I9E7L21vqWc+g9rvXJUvKbO6SLlmtXfFjlvCHZzlpQVzeuNn/pR/ib/Fff9Ev5Wjwf96n13CDZhshrj1Rt/NyFlN/ivv8AoHmtC7n9v2IScItuH8Oiq3H72i30JUllNvfJfc482p7kyOqeEmc5iltsbeZ0spd5ABXRymK96RTLNm/diQVwxrfawFvHDTsP1adoZl37fNaIYCiHdr6maePunu109CtzSPlkdJK9z3na55zJ71p0S3IzOTk9Wxex+/rb2uL5wqLuXL0ZdRzI+qPSa80emBAAgAQAIAxXhe+Lm9kj9XJ3l/K6iXMOb0KWEwQtYoFJETtqmiLOwpIizsaiukWda8l04cnJcOnBXGSQmVEkJuUGTQ5sfv629ri+cLPdy5ejL6OZH1PSa80emBAAgAQAIAxXhe+Lm9kj9XJ3l/K6iXMOb0KWEwQtZfcB4Liu0H7SuunxUkiGJpyMmW0k7cs9Wral2MxrrexXxGWDwSmtuzgaAzDViY0NbZ6EgfagaT4nWln+Tf8AO/qNFh6flRXMUYdtL5aW22y3RMuNWSWPYXNbCwcp7gNWW4DetuFxNyTsnL2V934GPE4WmWkIR9p/bzJm1YPstuia00cdVIB9KWobplx58jqCz24++x+9ovIvqwNFa02dX5jufDdkqGlslqoxnvZEGHxGSrji74vVTf1LHhaJLRwX0IZ9nqsMadXZG8bos9KehlALwN5jdtz6CtPbxxPs27pePd1Rm7CWG31b14folGU1jxPbmVPFYKiKQanaAD2neMxrBWdyvw09nVpmhRpxMNrTVGd4zwY+yN45RPfNQF2Tg7W6Enn5x0pthMcrvYl735FGLwPY+1HeimOW5mFDmx+/rb2uL5ws93Ll6Mvo5kfU9JrzR6YEACABAAgDFeF74ub2SP1cneX8rqJcw5vQpR2JghceibVTx0lspKaEZRxQsYO4BeXsk5TcmephFRioodqBIrNhmZWX++XSZ7RHFI2ihc45BrWZl2vpJW29OFNda4ve+vAx0tStnN+n7LDDPDO0ugmjkA2+zcHZeCxuLjxRrTT4MUXDoE5a9mSAKdSSQ2fG/sKOaN9Dd2ucWMcCI5mjM7Nmf/boTGaldhdqS9qH3QvjpVidI8JfkmcZaP8AhW66eWXF3ZZ8+7zyWbCa9vDTxNOK07GWvgYO/avSs8yhzY/f1t7XF84We7ly9GX0cyPqek15o9MCABAAgAQBivC98XN7JH6uTvL+V1EuYc3oUsa0wQtPQGGqrjmHrbOTmX0zNI87gAD5grzN8dm2UfNnp6JbVUX5EmNoVRaZ/hHDFFdaOavuZlnJqpdGndIRG0g6zkNZJTbFYudUlCvduW/vFeGwkLE5Wb973dxxc6M2R9DeaG3vtMzKsU88AlD2TMO/VuOsbvzU6rO3Uqpy2t2qfgyNtfZONsFs79GvFGhJMNir4jZ+0sRW+z1DncUkp5JjFpFonkGeTXEa8hlnkt+HfZ0Stjx1S9EYcQu0ujVLho36kcLMKGuw/wC2pLfBXPriTxKMtaI2sJIJJJPPmre3242aNuOnf46kFRsSr1SUte70HPCjXCmw4KZp+nVytbkPsj6RPiAO9V5bXtXbXgSzGzYp08TH3bU9EKHNj9/W3tcXzhZ7uXL0ZfRzI+p6TXmj0wIAEACABAGK8L3xc3skfq5O8v5XUS5hzehSwmCFrNh4LK4VOGzSk5vpJnNy36LvpDzJSPMYbN2viPcvntU6eBchtCwG8r2BhlY3nYHVc5HR9Mj8lrxr/wDXovwZsLy36v8AI34Rddjp2DlOrI9HzVuXc5vyZVj+UvVFoS83FexjSvFLBd6VpdV2yQTNA+tH9dvhr7lswc1tOqXCW7r3GTFweitjxjv6d4XepjnuGGKumIeyWpdoEb2Oid+RzXKouMLYy8PwztklKVcl4/6KBwk3UXDEDqeN2cNEDEMt7vreeQ/tTXL6ezp2nxe8U5jd2luyuCKe5bWYkObH7+tva4vnCz3cuXoy+jmR9T0mvNHpgQAIAEACAMV4Xvi5vZI/Vyd5fyuolzDm9ClhMELWXXgtuQo8QOpJDlHWRlo/G3WPLSHesOY1bVW0u435bbs27L7zXupIh6VikrYcOXWpt9fI2KkrJXVFHM45NzcfpsPNkTmOtbZQliK1OG9rc1+GY42RosdcuD3p/lDS41UF6xnb6ETxGloBxgn2gykl1aIHPlq81bXCVGFlPTfLd0KrJRuxMYJ7o7+vcXFLRiBAIIIBBGsFAGc31z8LV8elLp01PHNJao9pbI/IEO6GguI6E4p0xUXu3vTa9F+xTfJ4aW97lrs9f0Z09xc4ucS5xOZJ2kpvpoJddd4k5RZNDmx+/rb2uL5ws93Ll6Mvo5kfU9JrzR6YEACABAAgDFeF74ub2SP1cneX8rqJcw5vQpYTBC1i9NNJTzxzwvLJY3BzHDcRrC64qS0YRk4vaRsVDjq0TWYVlTO2Koaz95Sjll/M0bwefxSCeAuVmxFarxH8MdU69tvoUOWO9Y1uc1VFCH6GQ0faANhbuGvb1704i6MHBRb/AOihq7GTckv+ErdbNacN4efDXSMnvc2RZ7NxziOeeY5gOfeqab7sTenDdBfcutopw1DU9839jRrTK+e10c0pJkkgY5xO8kBJLYqNkku5jut6wTY6VZMzi8VmGn3+7txFFUzTCVrIXMJyYwMbqGRGR0tJOaYYnsYOlpL/AGKLp4Z3TV3Eq15q7AI3RWS2ztc7VxiqlJIH3Wg5d5W2qF+utsuiMNtmHS0qj9Svu2q9mdDmx+/rb2uL5ws93Ll6Mvo5kfU9JrzR6YEACABAAgDFeF74ub2SP1cneX8rqJcw5vQpYTBC1igUkRZ21TIsUYSCCDkRsI3LumpHVp7jraSd52qSItm8WRwfZaB7dhpo/lC8jetLZLzZ6+l61xa8B8qi0wXEM3GL7cZs89Kpky6tI5eS9ZRHZqivJfg8piJbV0n5kYVYVCblBk0ObH7+tva4vnCz3cuXoy+jmR9T0mvNHpgQAIAEACAMV4XwRi1h2Z0cZH+56dZfyuolzDm9ClhMULWKBSRFnYU0RZ21SRBnYUjhs2BKsVeFqI5jShBhd0aJ1eWS8vmENjES8956jAT28PHy3ErdbhBa7fNWVTw2ONpIzPKO4DpJWequVk1GJptsjXBzlwMClcXvc93KcST1r1umi0PIt6vUSK4dE3KDJod2Fpdf7YACSayIAD8YWe/ly9GaKOZH1R6QXmj0p9QAIAEACAKtjrCcWJaRjo3throAfYyOGpwO1ruj0WrC4l0S8mZcVh1dHzRjF1tNfZ6k09yppIJM9RcPou6Wu2FParYWLWL1EVtM63pJDUK5FDOwpoiztqkiDOwpHB/brtcLW5zrfVywF3KDTqPdsVVtFdq9taltWIsq9x6HFxulfc3h1fVyzluwPdqHUNgRXTXV7i0Cy+y3fN6jBymyCEyokgjhlqJmxQRvllecmxxtLnOPQBtVcmorVlkIuT0RqHB/gSW31Ud1vTQ2oZrgp8wdA/ad08w3JLi8YprYr4DrCYN1vbnxNIS0ZAgAQAIAEACAEaulp6yEw1cEc0TtrJGhwPiuxk4vVHJRUloypXLg1sVWS+l9vRPOv90/Sb4Oz8sltrzG6HHeYrMvpnw3Fdq+CytYSaO5QSjcJWFh8s1thmsPiiY55VL4ZEVPwe4jh5FLFP8A6c7R82S0RzLDvi9OhmllmIXBajc4KxG067XJ3SMP5q1Y/DfP+Sp5fifl/B9GDMRHV+y5e97B+a7/AJ+G+f8AJz+PxPy/gViwHiSRwDqBsYP1nzx5eRJUJZjhkve+zJxy3Ev4fuiRpuDC7SEcYq6SEb8i559As881q+FNmmGVWfFJE9QcF1siIdX1lRUkfVZlG0+p81kszSx+6tPua68srj7z1LbarJbbQzRt1HFBnqLmjNx63HWVgstsses3qbq6YVrSC0JBVlgIAEACABAAgAQAIAEACAPi4ALpwEHT4gDpcAF0AQAIAEACABAH/9k=;" parent="21" vertex="1">
                    <mxGeometry x="8.000000000000028" y="8" width="41.67" height="41.67" as="geometry"/>
                </mxCell>
                <mxCell id="24" value="&lt;font style=&quot;font-size: 11px;&quot; face=&quot;Georgia&quot;&gt;&lt;b&gt;Storage/Analysis&lt;/b&gt;&lt;/font&gt;" style="text;strokeColor=none;fillColor=none;html=1;align=center;verticalAlign=middle;whiteSpace=wrap;rounded=0;fontSize=20;fontFamily=Architects Daughter;" parent="21" vertex="1">
                    <mxGeometry x="74.73000000000002" y="3" width="60" height="30" as="geometry"/>
                </mxCell>
                <mxCell id="25" value="&lt;font color=&quot;#b3b3b3&quot; style=&quot;font-size: 11px;&quot; face=&quot;Georgia&quot;&gt;Postgresql&lt;/font&gt;" style="text;strokeColor=none;fillColor=none;html=1;align=center;verticalAlign=middle;whiteSpace=wrap;rounded=0;fontSize=20;fontFamily=Architects Daughter;" parent="21" vertex="1">
                    <mxGeometry x="65" y="19.66999999999996" width="60" height="30" as="geometry"/>
                </mxCell>
                <mxCell id="56" value="" style="group" parent="1" vertex="1" connectable="0">
                    <mxGeometry x="-540" y="90" width="160" height="60" as="geometry"/>
                </mxCell>
                <mxCell id="57" value="" style="strokeColor=#dddddd;fillColor=#ffffff;shadow=1;strokeWidth=1;rounded=1;absoluteArcSize=1;arcSize=2;fontSize=10;fontColor=#9E9E9E;align=center;html=1;" parent="56" vertex="1">
                    <mxGeometry width="160" height="60" as="geometry"/>
                </mxCell>
                <mxCell id="58" value="&lt;b&gt;compute&lt;/b&gt;" style="text;html=1;strokeColor=none;fillColor=none;align=center;verticalAlign=middle;whiteSpace=wrap;rounded=0;" parent="56" vertex="1">
                    <mxGeometry x="57.5" width="60" height="30" as="geometry"/>
                </mxCell>
                <mxCell id="59" value="&lt;font color=&quot;#707070&quot;&gt;cloud function&lt;/font&gt;" style="text;html=1;strokeColor=none;fillColor=none;align=center;verticalAlign=middle;whiteSpace=wrap;rounded=0;" parent="56" vertex="1">
                    <mxGeometry x="70" y="30" width="82.5" height="30" as="geometry"/>
                </mxCell>
                <mxCell id="60" value="" style="shape=image;verticalLabelPosition=bottom;labelBackgroundColor=default;verticalAlign=top;aspect=fixed;imageAspect=0;image=data:image/png,iVBORw0KGgoAAAANSUhEUgAAAOEAAADhCAMAAAAJbSJIAAAAaVBMVEX///+uy/pmnfZChfSryfpim/aQtvivzPqoxfqpyPrO3/w9g/SyzvrL3fw7gfTr8v7y9v7i7P32+f6+1ftTj/TE2ftGh/S30fvT4vxKivRSjvRon/Zhl/VYk/Xe6f3A1vuLsvh5pveBrPcZPLa/AAAIsElEQVR4nO3da3ejKhQG4GDMGJs0t0matrl0zvz/H3nAW1T25qIgm1nuz9TF42tQqeJiMVe79qE7UJTHXhzXv/1t3Liua2/EY87S8MRrynJPRA5k4YkcyDwRC2BwYgH0Q6yAgYkV0AexAQYlNkD3xBYwILEF5L1wSuwAgxE7QLcp9oCBiD2gyxQlYBCiBHSXIgAMQASArlIEgZMTQaCbFBHgxEQE6IKIAiclosDxRAVwQqICOJaoBE5GVALHDTca4EREDXBMilrgJEQtcHiKBsAJiAbAoSkaAb0TjYDDUjQEeiYaAoekaAzkG7/4sBVlDLQnWgAZO/nh8TqYCy2JNsDMH9AfkUiComyI5sMNmQRF+UiRUIKi3KdIKkFRrlMklqAotykSBLpNkSTQJZEo0B2R3CDzKjdEsgmKcjHcHNfm25g4QVHjUySdoKixKRJPUNS4FMknKGpMilEAx6QYCXA4MRrgUGJEwGHEqIBDiDanCQLAAcQ38z9IKQCtiOn7wkpIA2hDTN8WNkIqQAuinZAO0JxoJaQENCbaCGkBTYkWQmpAQ6KxkMhpolsmRGMhRaAR0VBIMkFRemIh/NQ2owrkxMyBMEv/C+1Q1F+mNhoIM/a1Cs1Q1Oo7UxL1wox975LQDEUlu4eSqBVy4GZDWrhRE3VCAVwSFy53ZwVRI8wyDiQv5MQtSlQLiwQjEKpSVArLBGMQKlJUCTN2Lv46BiGeokKYZRUwCiFKxIVNgtSFu6WSiApbwOXHr9AMRf2pe4kQMWE9yIh6JJSFv1ZNFCAREbYS/EpuK9rC5P6hIMLC1yDDA0wS6sLkdm6GG+mkAd4Bv04TX6tbDMKkiVFOsRBeusJXgiLAOIRNjFKKxax+V1gnWAUYibCJsX+nIQubBKsAoxHWMfaIkpAnuOsEGI+wjrFL7AsrYCvAmIQ8RonYE/JDdNcLMCphFWOb2BVWCT46vriESXLuEjvCYpDpBxidsIhx96hPGm1heZroBxifsIixSbElFL9BIMAYhSLGOsWXsEgQCDBKIY9xsylTbIQiQTDASIU8xvJArYUiQTjAWIX83FgQK2HGvj8SDBipkMe45HcapZCx8xltF68wuX2fM1Zm+EB+gZELeYyPMkNVm7iFyWolhOv7vytM7mveaK1pFLVwNQtnYfCahbNwFoavWTgLTYSn59vl8nY0e7pv//n+8/5ptvLB4fmu37B/4eEnz1Neef5b3+9PVrRNc/apbbu/Vm3Ti8roXfiWN9PJqW6ZmgN7Ta6n7KBu/NNaLjVX7A/fwkvnjSn1YkP77ttV6rfmuyvv5G+hhJ+9V8KK202kTtLSnIqD73evcf4MI9xL77zhPVls+23ZFm3b33N8w9hB7Vd4lTrNMqzTT/kNQHR3SHHzwH9CCOUIFb2WI8RDhB7wwUL0KnwHOpIi4+kJeokT6zVwbLAUGU+9CqFYWAq3fYILyCKB2yx561UIAVkOtwWfnUNyOYAv7V7JCOFzAPjWSgqf5qDfNzqGeRWCTztaZQgfpeBvNkiG0ICA7WrwdfH8CDcGf4fIEOZVCOWCXdUApzj8qqZ/RaPI268QGhGwWMDAkQMPujrAft+er2l+5H2NdRoaPvBrb+AxUeyK169QDlFxwyAdeoo7ETlELELf9xb9nqhu5BbbLjHFL7z55VJ/w+ie831/2CUqgYtTh5hulbMTXSL6657gHn+/bbqSMrwfdbdrY5or7iSLeqbN/sivivmACWainlcxUZPnW/3Uy+JwYbxxnrOLZg5D1Oe2aJtelTtuktnE0/74PBp0uURatD3tn8e9Zg5vni+dhbMwfM3CWTgLw9csnIX/iPDtdlc9fBm1cHUTNzHv2eqhbBWv8L7KxBzde7q9Kx6Cjld4+7pv01LItvcd/pBprML75r5ltZBtV7svLMY4hbfzjgNfQkFcIjFGKbx/FMCWUBA332CMMQrPmxLYForf4hKMMT6heO+pBHaEBRGKMTqheHetAnaFxW8RiDEyoXj/cFMDe8KSKMUYl7B4h7QB9oVVir0YYxIW7wG/EpSF5XDTizEeYfUudwsoCyvi8uMeobB8H7+dICSsia0YIxFWayp0gZCwJvIYY1wXowcs/7Xaf7apJtYxxiCs1zbpA8sMpWddamIVYwTCen0aCVg+lSQ/zdMQixjJC5s1hmQgJnwRxaBKXdisEwUAUWGLuPkmLnytKwcAcWGLuNz8Cc1Q1Gu9NhCoELaIxNegVQJVwtZwQ1qIDzJa4eu8GIGQA5G1L1XC5gKOvhBLUCes7zTICzcPDKgTlkTyQjxBvbCcuyEu3NxVq13rhIJIXIgOMoZCQSQt3CmBJkJOJL2u/kMJNBKy7G9ohqL+qj8cYCZkzOrD85PWQdd1Q6HNh+cnLfj1mgFCqkST78wYCmkS9QnafO+JINHt954IEp1/s4sa0cN312gRvXw7jxLR0/cP6RAtv2EJvbFMm2hymmgLLdrTINp/Lnf8h+cnrSHdjYo4rLMREYd2NRri8I5GQhzTzSiINp1MpU5GcNIYmwL5FMclWGyBdoouEiCd4vgEbbcyMdFV18gS3XWMKNFlt0gS3XaKINHNINPaHrWThvt9TixFcPUepEwSFGWTouk2B9fJvC8W+5tQir664vq3Pbi0/z4bvK+JpOizGxbbVq/MOqou5iOC/X42n1b2B5Q+P+kSaP6/D59AY+KwX4rZP+jQBcwcldGBOnQoMPkvst8ERRmkOHys0xK9JygKWPnOFVBLnCBBUZoDddzZSkmcCKg5UMeejhXEyYDKFMdfb6DECYGKFF1cUCHESYFoim6uGEHixECE6OqSGCBODgSJ7q75JWIAIEB0eVPTu+uf5EQvV4/o9q6tk2KQBEV1iK5vS1vEYMDOScP9fXdDDAhspehjYqEiBgU2KfqZOSmIgYFVir6mhjgxOLBI0d/c1yEPc5ro1s/a4/yl6RLAfiv0Y1nU6n8+AcAPMeOcaAAAAABJRU5ErkJggg==;" parent="56" vertex="1">
                    <mxGeometry x="7.5" y="5" width="50" height="50" as="geometry"/>
                </mxCell>
                <mxCell id="63" value="others&amp;nbsp;" style="rounded=1;absoluteArcSize=1;arcSize=2;html=1;strokeColor=#4284F3;gradientColor=none;shadow=0;dashed=1;fontSize=12;fontColor=#9E9E9E;align=left;verticalAlign=top;spacing=10;spacingTop=-4;fillColor=none;dashPattern=1 2;strokeWidth=2;" vertex="1" parent="1">
                    <mxGeometry x="-760.5" y="320" width="620.5" height="99.5" as="geometry"/>
                </mxCell>
                <mxCell id="64" value="" style="group" connectable="0" vertex="1" parent="1">
                    <mxGeometry x="-670" y="339.75" width="160" height="60" as="geometry"/>
                </mxCell>
                <mxCell id="65" value="" style="strokeColor=#dddddd;fillColor=#ffffff;shadow=1;strokeWidth=1;rounded=1;absoluteArcSize=1;arcSize=2;fontSize=10;fontColor=#9E9E9E;align=center;html=1;" vertex="1" parent="64">
                    <mxGeometry width="160" height="60" as="geometry"/>
                </mxCell>
                <mxCell id="67" value="&lt;font style=&quot;font-size: 11px;&quot; face=&quot;Georgia&quot;&gt;&lt;b&gt;key vault&lt;/b&gt;&lt;/font&gt;" style="text;strokeColor=none;fillColor=none;html=1;align=center;verticalAlign=middle;whiteSpace=wrap;rounded=0;fontSize=20;fontFamily=Architects Daughter;" vertex="1" parent="64">
                    <mxGeometry x="74.73000000000002" y="3" width="60" height="30" as="geometry"/>
                </mxCell>
                <mxCell id="68" value="&lt;font color=&quot;#b3b3b3&quot; style=&quot;font-size: 11px;&quot; face=&quot;Georgia&quot;&gt;secret Manager&lt;/font&gt;" style="text;strokeColor=none;fillColor=none;html=1;align=center;verticalAlign=middle;whiteSpace=wrap;rounded=0;fontSize=20;fontFamily=Architects Daughter;" vertex="1" parent="64">
                    <mxGeometry x="65" y="19.67" width="85" height="30" as="geometry"/>
                </mxCell>
                <mxCell id="62" value="" style="shape=image;verticalLabelPosition=bottom;labelBackgroundColor=default;verticalAlign=top;aspect=fixed;imageAspect=0;image=data:image/png,iVBORw0KGgoAAAANSUhEUgAAAgAAAAIACAMAAADDpiTIAAACrFBMVEUAAABChfRChfRChfVBhvVAifZChvRDhfRChfVChfRChfRJgO1Eg/NChfRChPRAhvJChPZChvRChvREiO5AgO9BhfVDh/VBhfVGg/dChvQ8h/BChfRChfRChfVBhPNAgP85jv9DhPNDhfNChfRChfVDhfM9hvNFg/FChfNChfVDhvWAgP9ChfRChPRBhfQzmf9ChfVChPRVqv9ChvRChfRDhfRBhfQ9hfVBhfRChfRChfRDhfNChPNChfNChfRDhfRDhfRBhfRChfRChfRChfRDhfNChfRChfVAhfRBhPRBhfRBhPRChPRJkv9BhvNDhfVChvNChPRCg/BDhvVChfRDhfRChfRChfRBhfVDhfNChPNGf/NBh/VBhvRChfRFifVChfRDhPRNgP9ChfRDhfRChfRCg/NChfRDh/RAgP9AivRBhPNChfRChfNChfRAhPVBhfVChfRChPZChfVBhvZDhvI7ietDhvRChfRChPdChvVBhvRChfVDhfRChfRChPRChfRBhfRAgOpChfRGi/9ChfRAh/FChPRChfNChfVChvRChvRDhvNBhvRBhPNChfNChfREiPdChvRChfRDhfRBhfRAh/dChfRChfRDhvZChfRDhvJChPQA//9BhvNChPNEgvRBg/JChvRChfRDhfRChPJDhfRChfRChfRChfVChPRChfRDhfNChfRChPRBhfRChfVVgP9BhvRChfRDhvVBgvNChfRChPVBiPRBhvVChfRChPRChvVAgPJBhPNChfREg/RChfREh/VDhfVChfRChfNChPVBhPRBhPVGhPZBhPNChfVBhfNBhvJChfRDhfNDhvVChfNChfVChfREg/NDhfRChvVChvRAhPZDhvVBhfRDhvJDhvRDhfRChPNChfRChfNChfRDhfRBhPTU7fogAAAA5HRSTlMA//TFShym5mTt8g5A5VkoNr1hDxBiNX0hjxGQ961TCAlXsPiWaxUlgNtjAvCeQwVJogPp+rRaGXHKukE+l+tFoUe8/PuZ2n8wieKc5wdSrGlwI37XncDJS8dsFjON/Rq2WwrYb/FCo0gEGG7Ixo40ZmBRkjcTDV/+H6qo3Lj5tfZ1DPULzCSzrnvSXSq7gW3WHnTgz3kgd8055CbQAT+DLSfU4Yo6LqfqMoffWO6LXvMGv6VnK9loL07CzpMUhalEiDGV74RNt08dasSYO9OCTK+r0SkXfHg4et49kctVspu+XKCe4E+pAAAJjElEQVR4AezbxQGEQBAAwZlzQfLPlh/6xakKAG2cDQAAAAAAAAAAAAAAAAAAAAAAAAAAAAAAAAAAAAAAAAAAAAAAAAAAAAAAAAAAAAAAAAAAAAAAAAAAAAAAAAAAAIBDyeXc7o+4nufrnQs4RABTn+vt/292BPD7Xy2AVwqgr7haAKUABir3VAIQgAAEIAABCEAAAhCAAAQgAAEIQAACEIAABCAAAQhAAAIQgAAEIAABCEAAAhCAAAQgAAEIQAACEIAAjkQAAhCAgSECMDRMAAaHCsDw8DMEEKxCADslAASAABAAAkAACAABIAAEgAAQAAJAAAgAASAABIAAEAACQAAIAAEgAASAABAAAjgSASAABIAAEAACQAAIAAEgAASAABAAAkAACAABIAAEgADqnKhjIWvOK4qc+AtAAAIQgAAEIAABCEAAAhCAAAQgAAEIQAACEIAABCAAAQhAAAIQgAAEIAABCEAAAhBAw4498EYXRVEY3qu2bdu2bdv4bNuo+YNrXwxPzs3OPGG5kuy3HTgCcATANwD+ATgCCAgMCrbXUUJCAwOMskVh4RH2CyAsMoprANFATGxcvO1HSUhMSgaijbJFKYBzapo9AkjPyASymAaQ7YtTObl52bYcJb+g0AmnfLONsUVFxQBQUlqWYFsA5RWVOFXFNIBqXHKPDLP2KDW1dbhUbYwtqscFp4bGImsD8A5qasa5ljSeAbTihrb2dMuP0tHZhRtajbFF3bjWEx1gRQC9ff0xuDbAMoD8OtxWOVhuyVGGhkdwW12+EbYo3xO43duQRQFkV4/m4JYxlgEUQKG5KcjbvKOUD45DqcAIWzQBhcmpaXMDmJn1xV1z8xwDaICamP6+XlNHCckKnIOaBiNsUSFUtCwsLpkOYGh4GWpWGAYQvwoNObn3sjWOcvkyTMNqvPQtnTGn+w8e6gXw6PETaHjKMIA+6PB99jzhBRRe9roUOkFHn/wtegVtxa/fEDVC4S29e1/VDE0fPvIL4BP0Net+UsMn+Vv0Gbq+fP0GhbrvP6DrJ7sAfv2GAL9/yd6iP04Q4C+7ABYhxKLsLUqEEP+4BfAfQvyXvUVrEGKdWQBR3yDEtyi5W+QdAyE2mAWQBUGy5G7RJgTZ4hXANgTZlrtFpRBkh1cAu84QwnlX7lbRHgRx4/Y+wP7BOOxs/GBf/tZM5+ExO/fYHkkTRgH4nPUGaztrT8y1bdu2bdu2bdu2zR/yYq4J50l3BR/qmsr9NTjBma7pLjDVrVtfwBNXBG3YuImpZtPGDbpkbS68haloVdutnrsotM3ibUwF2xa3ATTK2r6jdBBTxbSduzx9VfDutnuYInva7oaLRlmBVdtnZQrt3TfSjGXhy1b0ZTL1XbEMAi2yHBlqeTHZfAvvN2lfwIGd05JzfTwAgUZZxcccnMtkOFTdZ7txG0MOHzlKqjt65DAE2mX1ObaoCJPkePuagYbuDMpxYi+V7D2RAzIdsyacnDmDik4FdDpt9Naw/QW30MaWgvsh0zerUN7l9Whr7tQWxdP2BhYvQkuHHJBpntV1Ma3NytYHQFoBcIaWCkKmfZbjFC2dhcy0AkyoQEtTIdM9C9hESyfTCuCUiTbOQaZ5FibS2rTcaQVQmr4v0ggSzbOw9RRtTEkrAHB+Lm1dmACB3llovo62LqYVoM8eKjgIgdZZwFjaK3LJ+AI0pZKLEOichcuTqKDvHMMLEEo10tCscxYyZqWSgWYXoJwXFTXwhkDXLAReoaJcJheg+VUqmwqBplnACqqau8zgAlyjMmFo1jcLPnWpbE8JYwswhqK1a9WGZm2zcH0L1bGpqQWYfJySACBAaWjWNQvbF1KSueGNGZSEmlkAR2dKGkwAJjSg5CYE2mUBrSnpcQuYTYnXViMLsI+SGd0AoNsMSlpBoFsWupWi5DaA7ZGUrGtuYAH8e1ASDqdwSorcgUCrrEQvKR0dADAkiJK75hWg5yFKZm6H0/aZlFTwhkybLGAgJV5t4JRhEiXFTCtApTOU+JaFS1lf9aFZoyxgIkVL4VKQknsFDCtAeUp6DECMAT3Uh2Z9srD7FCUD7SYJO542qgBRdSm5jzjuU1LqMAQaZFn+e6dNQIzs6SgZYVIBuvpSkn4w4hicXmFo1iBL4XljcA7EkYWSSQ/MKcD2h5Qcn6z08GYKRBpkAY8mUbJR5RS7rI+NKcBGqr0TLkbRE0g0yMLjrJTUqYR48qyl5OlgQwqwOZiSZ3DzTGFo1iDLZg74UBgSeF6XkiNmFKCQ3P8XJeCmxAvVoVmDLOAlJZNewU1DSnrUNqIArymZdR6C87MoeQMXLbJs5oDHql8rgnoaUIChFI2CaBRFZeCiQZbNHPDb5hA8Pk7JmUoeX4A+zZL2OntDSbM+ALTKwvYQSua+g6gYReU9vgB43IHujuaBDHmO0l2Hx3DRJ+t9O4urjaA+JdMDPb4ACPxQjwnU24xEbXb/7A+BcNEpa157uiuKxPRZRTfBHz1tCJB9Osr4PsPCZ8Z39BMkGmT5VWYCTQohUQeKMIEv40x5FOydSXxQIqtUh3Fl8oZMg6wCwxhP3a+wsJLxHfQ2aDZwohdjBIXBUlgQY3hNhEyPrMFHeiid9ysca58ur1kLQhZE0GVSBliKu4giYgFk2mTdyswYTwMhktYhrMsOswoAR+MedOoOW93p1KOxAwK9ssrOpMu9ybBRtQddvjU3cFl4VV+S/H4atk5/J0nfqhDolxU+g04/YOs2nWq8MnNjyPWfpNcCKFjgRf68DoGOWYcvkOQv2HN0JMnfPY3dHFqmyB8o+VOkDASaZs35S7abBwVt+rPe4kowtgDImIJP1Dmr96FGim1b+y/7dowFEBBDUTQpZhyFTdqbferQ40DurVO+Is1fIgoEUM58+aEAEAACQAAI4L0EgAAQAAJAAAgAASAABIAAEAACQAAIAAEgAASAABAAAkAACAABIAAEgAAQAAJAAAgAASAABIAAEEAFAkAACAABIAAEgAAQAALguQDuM/QW9bQ+5Bk/CGA31iugjZkC2PSopueBAKaoZqodgB8yBSAAAQhAAAIQgAAEIAABCEAAAhCAAAQgAAEIQAACEIAABCAAAQhAAAIQgAAEIAABCEAAAhCAAAQgAAEIQAAC2BmGGIaYhpmGGYcah5qHm4cDAAAAAAAAAAAAAAAAAAAAAAAAAAAAAAAAAAAAAAAAAAAAAAAAAAAAAAAAAAAAAAAAAAAAAAAAAAAAAAAAAAAAwEesG9lgFAAA9mxN53Iy2VsAAAAASUVORK5CYII=;" vertex="1" parent="64">
                    <mxGeometry x="10" y="9" width="42" height="42" as="geometry"/>
                </mxCell>
                <mxCell id="70" value="" style="group" connectable="0" vertex="1" parent="1">
                    <mxGeometry x="-440" y="340" width="160" height="60" as="geometry"/>
                </mxCell>
                <mxCell id="71" value="" style="strokeColor=#dddddd;fillColor=#ffffff;shadow=1;strokeWidth=1;rounded=1;absoluteArcSize=1;arcSize=2;fontSize=10;fontColor=#9E9E9E;align=center;html=1;" vertex="1" parent="70">
                    <mxGeometry width="160" height="60" as="geometry"/>
                </mxCell>
                <mxCell id="72" value="&lt;font style=&quot;font-size: 11px;&quot; face=&quot;Georgia&quot;&gt;&lt;b&gt;security&amp;nbsp;&lt;/b&gt;&lt;/font&gt;" style="text;strokeColor=none;fillColor=none;html=1;align=center;verticalAlign=middle;whiteSpace=wrap;rounded=0;fontSize=20;fontFamily=Architects Daughter;" vertex="1" parent="70">
                    <mxGeometry x="74.73000000000002" y="3" width="60" height="30" as="geometry"/>
                </mxCell>
                <mxCell id="73" value="&lt;font color=&quot;#b3b3b3&quot; style=&quot;font-size: 11px;&quot; face=&quot;Georgia&quot;&gt;IAM&lt;/font&gt;" style="text;strokeColor=none;fillColor=none;html=1;align=center;verticalAlign=middle;whiteSpace=wrap;rounded=0;fontSize=20;fontFamily=Architects Daughter;" vertex="1" parent="70">
                    <mxGeometry x="65" y="19.67" width="85" height="30" as="geometry"/>
                </mxCell>
                <mxCell id="69" value="" style="shape=image;verticalLabelPosition=bottom;labelBackgroundColor=default;verticalAlign=top;aspect=fixed;imageAspect=0;image=data:image/png,iVBORw0KGgoAAAANSUhEUgAAAgAAAAIACAYAAAD0eNT6AAAzJUlEQVR42u3deXwddb3/cSj7piDIIlfAjZ+igrhcuYraNmnadMvSpqUrIc2ZkxYrIFe8qMhRmn1Pm7QnmZlDe1EgyvUCLlwXQLxw9bKJ7AgiKlwQoW3O9/udpEu+v5mUYsGWZjnLLK/n4/F+wN+d78znfSbfmTngAAAAAAAAAAAAAAAAAAAAAAAAAAAAAAAAAAAAAAAAAAAAAAAAAAAAAAAAAAAAAAAAAAAAAAAAAAAAAAAAAAAAAAAAAAAAAAAAAAAAAAAAAAAAAAAAAAAAAAAAAAAAAAAAAAAAAAAAAAAAAAAAAAAAAAAAAAAAAAAAAAAAAAAAAPjAqpQ4eV6POJt/CQAAIsCwnPMNU91gWGpoap3QM1vkn8o60l/iXwYAgJBZtkkfFbdkjTv0H3Kjd2dqrXg9Mxrl4Nw2cePSdnkK/2IAAAT5135q6IMxS3W5v/q37Dn491YAdqewTg7PbpEPz+tIz+NfEACAgEgk9MHxPlXuDvif723o768A7JniZrG1tF12VXTro/mXBQDAh7xNfe4v/avcwf6X/Q3+0RaA3SmqFztLWuQ95V3qPP6lAQDwgeqU87ndm/pGO/jHWgB2p8DNrGbxf+Ud8huJhJ7Evz4AADnkbeozbLnS/cX/u7EO/YkUgDfcFWiQ20pb5a0VbVvfzxEBACCbv/b7hj60a1Of3DqRwZ+JAvD3TYNCz2mRT8/vFBdxhAAAyBBvU5879OfFLfWLTAz9TBeAN2wabBSyvEOklq/Tx3PkAAAYh/Fs6st3AdidaQ1ieG6rfGBhmyjiSAIAMApx0/m8+2v/RndAb8vW4M92Adgzs5rFK/M6VENlSh/O0QUAYM9f+9366Exs6vNjAdid6Q1iR2m7+MXCLnEORxwAEO1f+/bQWYat1mZqU5+fC8CejxLObpF/quhUlxyg9YGsAgBAJOze1OcO4NvzMfTzXQDe/P2Bsnb1veXr1amsDABAKBlJeUrMdr7pDt7n8z34/VIAXn+UsF4Mz2kVjy3oTC9gpQAAQsEd+l/I1aa+oBaAPTOzWWwtb5c9VZY+htUDAAgUb1NfzJSrDMt52G9D3+8F4A3fH2iT91R0O+ezogAAvjayqc9S69wM+HnwB6EAvGnT4IvzO+VV3v4JVhkAwBdGPr9rq/kxW90RhKEftALwpk2D28s7xI8Wrhs4k5UHAMgLb1OfYTlX+2lTX9gLwN+/PyD13Db5zIIuGWMlAgBywtvUZ9iq34+b+qJSAN6wabBJqvkdYmN1hziJ1QkAyChvR7phyYsN23kk6EM/bAXg9e8P1Ivhkjbx4MK1spgVCwCY2K/93vSHg7SpL8oFYM9Ng7Oaxavzu1QL3x8AAIyakdSHGKaqCOKmPgrAm74/0Ci97w/cWdEjP8HKBgDsVZUl32VYMhHkTX0UgH1tGhR6bov884IucXlFvz6I1Q4AOKCmz5kcs9T3wrCpjwKw/xQ3iaF5Her7RtI5jdUPAJH7tR/OTX0UgDFtGtSlbeKJRV1qEWcEAIT9176Z/kjcUt1h3dRHARhfZjfL9PwOueHSlD6WswQAQmL3pj534N3J0KcAvOX3BxrEcGm7/PUFa9OTOXMAIKC8TX1xU37LHXQvMOwpAGP+/kCreHn+Wufq1V36MM4mAAjCL37LmRLVTX0UgCxsGmwU28vb5W0XdQ2dxdkFAL77ta+PMUz1RcOSjzLYKQBZeZSwXui5reoPC3rSNYmEnsRZBwB5tMemvjQDnQKQs+8PNEtnfqf4d+/PTJyFAJAj3qa+mKUWuAPslwxxCkBeHyXctWnwd0vXyrmcmQCQJWzqowD4edPgnBa5ZWGXaF/VrY/mbAWADKi2nanusPq+m+0MbQqA3zOjUe4sbxe/rOzZeh5nLwCM0err9Nte29T3GIOaAhDM7w9IXdIqX1i0Tnylol8fylkNAG/BSImPuoO/h019FIBQPUrYLLdVdMn/XNkz+F7OcgDYPfST+pC4rRbGTXUXQ5kCEIHvDzy1tFssP0DrAzn7AURSzUZ1qmHJb7uD6P8YxhSAyH1/oEWK+Z2y7+KNA8dzNQAQCXHTKTBsdROb+igAROiiRjlc3i7vXdwrCrk6AAgdb1Nf3FKr2dRHASD72jQodEmb+NvCbrnmsn59BFcNAIFW3SfOjlnOenfYCAYuBYCMctNgk9gxv1P+tGrDtnO4igAIjN2b+twB8yuGLAWATHTToHxuSY+8OJHQB3N1AeBL3qa+mC2vYVMfBYBkPrNa5OCCTnH9Klu9m6sNAF+I2YOFbOqjAJAcbRpsELq8Qz6ypFvN5+oDIA+3+V99uzv0v+QOkccZpBQAkp/vD8xtEQOLulXHyp4tx3FVApBVbOqjABAfbhpsFDvnd8q7L1yvPstVCkDGeO8xj5nqgpil/puhSQEg/n6UsLRdvrioR1xZmdKHc/UCMM5f++qfDFOucQfFiwxLCgAJVma2yG0VnfIWIzn0Qa5mAEbF29QXt9R/sKmPAkDC8ShhWbt8emmPuKiiXx/EFQ7AG+yxqe8JBiMFgIRz0+CcFqku6JLWqpQ4maseEHFxS5xj2M4GdxhIBiIFgEQj0xvl8LxO+UDlOjmTqyAQIWzqIxQAMnJXwPv+QLt4dUm3qve+18HVEQipkU19lqxlUx+hAJB/2DTYJHdUdKqfx3rlp7haAmG5zd83OM292P+ATX2EAkD2u2nQe9Ngu/zL8g3qktVd+jCuoEDAVKY2Hxsz1SVs6iMUADLezGkWQwvXqv7qPuc9XFUBv//a9zb1WU6STX2EAkAytmmwQep57fKxyh6xOJHQk7jSAj7hbeqL22qRe0G/m6FGKAAkm28aLGmV6QvWqXU1m9IncvUF8sT7LGjclnVs6iMUAJLz7w80ieH5nfLXVUlnCldjIEcMa7DotU19OxhihAJA8v2mwdI2+fKSnvQ3V3Xro7lCAxnmbepzL9iXunmSwUUoAMSPmdUsty9cK3+0sk+czVUbmKBYSnyMTX2EAkCClKJ6oed1yGcv7JGGt0eJKzkwSt4JY5hqsXuBvochRSgAJNDfH2iVzuJ1YpORdE7j6g7swx6b+l5iOBEKAAlTZjSObBp8qKpXlR2g9YFc8QHvNr8tpsdM9Z9s6iMUABKFRwnL2uSWJetUk5EcOIEJADb1EUIBINHbNLhz4Vrxy1iv+gxTAaFXY8pz45bT6158FQOIUAAI2fUoYXmH+L8Lk+IKI6mPZFIgNLwPasQsZwmb+ggFgJC33jQ4t1Vtu2CtvKm6b+hDTA8Elrfr1b3I1rOpj1AACBnj9wcapZ7fKZ6q6hPLjaQ+hImCwGzqcy+uN7Opj1AACJngXQHv+wNtUi7plhtqNqpTmTDwnZU9W44zbHWZe1F9isFCKACEZD4zm+XwwrXy3ljvYDFTB3l38caB4w3T6WNTH6EAEJKjTYMNQpe3i1filrOCKYS8qe6Tn2CQEAoAIblP3Fb3MYVAASCEAkAoAAAFgBAKAKEAABQAQigAhAIAUAAIoQAQCgBAASAUAEIoAAAFgFAACKEAABQAEt68PKtF/mZmk3yuqFFsLqiT2xgqhAIAUABIcPPHmC1/GrOc9TFT/athytKaPmfySnvwvTUp5wwviYQ+eG/reXJi4ISCevmpglpxydQ62V9QJ55n0BAKAEABIP7LoJtfGZas9b5BUWXpYzK9xj9XK0+ZuiZdMXWN2ORedLcweAgFAKAAkPzkpbilur1f9ZUpfXgu13tFQh9aUC9mFNQKy70Av8wQIhQAUAAIyWrkVsOW1xrWYNG+bt/n2ieS+pCpa8Qi90L8G4YRoQCAAkBIZvP7uCVrcv1Lf6ym1KlPT6kTN7gXZTYSEgoAKACETCD/G7PUPPfX/qQgnQ9T1zinuxfmf3ezkwFFKACgABAy+txvWM6UoJ8XhfXyXPcC/XOGFKEAgAJAyH6eyTdsWR20X/z7420YnForf8+wIhQAUAAIeWO2u+msTG0+NqznyJyEPtItAV3uBXuYoUUoAKAAEGKpJ2pMeW5UzpWC2vQU96L9LIOLUABAASCRTcyS5rJN+qionS+fbXz5mNdeKMQAIxQAUABIlOJsiVlqQdTPm4Jacbl7Ad/BECMUAFAASPhjO4947+HnrNllSq2Y7l7ENzPICAUAFAAS5twZ5o1+474TUDdwpnshf4phRigAoACQ0CVuqRtXd+nDOFv2bnKTONm9mD/GQCMUAFAASIg2+6nWA7Q+kDPlrRVdnT5xap14hKFGKACgAJAwpIUzZPQ+V5d+p3tRf4jBRigAoACQAG/4U9/hl/+49gQc717Yn2C4EQoAKAAkiJ/u/VlFvz6Us2OcewLqt77fvbj/jQFHKACgAJAg5YEqSx/DmTExU+rSX3Av8EMMOUIBAAWABOKDPjUb1amcFZnhXuArGXKEAgAKAPF7hmO2nM0ZkekSMPIRIYYdoQCAAkB8+qy/rTo4G7KwHyChD3cv9I8y7AgFABQA4sfcz4t+slgCasXH2A9AKACgABC/xYn1Dp7JmZD1/QBfZeARCgAoAMQ/t/5N+S3OguxLJPSkqbXyboYeoQCAAkD8kD8aSX0kZ0GO/hSwRn7SvejvZPARCgAoACTfG//mcwbk/E8BKQYfoQCAAkDy+YW/X7D6c29ao3zX1FqZZvgRCgAoACQvz/zXmPJcVn++7gLIrzP8CAUAFACSh1//zm2s/PwpatZHuRf/VxiAhAIACgDJaaptZyorP993AdJrGICEAgAKAMll7mXV59/kJnGyOwAGGYIUAM4GUABIbmKqCla9P0xZI0yGIAWAMwEUAJKLPF/Rrw9i1ftD4TXpD7lDYJhBSAEAKAAk22lnxfuLOwR+wyCkAAAUAJLV1Jjqn1nxPvszQK24jEFIAQAoACSb+T2r3Yd3ANaoU3k9MAUAoACQrCVmy2tY7T69C1An7mAYUgAACgDJ0u1/3vzn27sAdemVDEMKAEABINnIZu9ztKx2f5p2zdYPMAwpAAAFgGQhzg9Z6f5WUCteYCBSAAAKAMlsbHUFK93fptSJGxiIFACAAkAy/enff2Gl+7wArEmvYiBSAAAKAMlkHCOpD2Gl+9vk2vRHGIgUAIACQDIY+SirPAAFIKEPdgfCNoYiBQCgAJBM5WZWeTC4A+EphiIFAKAAkEx9/a+NVR6QArBG/IihSAEAKAAkU38CuJhVHpg7AB0MRQoAQAEgGXoFsJjOKg+Ggtr0xQxFCgBAASC8AjhyfwJQZQxFCgBAASAZyUpr8P+xyoOh8BpRyFCkAAAUAJKRrLLVu1nlwTB5jTqPoUgBACgAJCO5eOPA8azygBQAXgZEAQAoACRjSeojWeUBKQD1zhkMRQoAQAEgGQmfAQ6OoqvTJzIUKQAABYBkJJUpfTirPBimrnFOZyhSAAAKAMnMUwA9W45jlQfDlG+nP8xQpAAAFACSkVRZ8l2s8mDgKQAKAEABIBnLCnPw/azyYOA9ABQAgAJAMvgqYPUZVnkwFNTJUoYiBQCgAJDMFABLLWCVB8OUNelVDEUKAEABIBlJ3FJfZpUHw9Q60c5QpAAAFACSmZiqjVUekAKwRtzKUKQAABQAkqE4P2aVB6QA1IonGIoUAIACQDKV51nl/jc5oQ92B8IQQ5ECAFAASMZSsyl9Iivd3wrq0mcxECkAAAWAZHYjYN/gNFa63wuAjDMQKQAABYBk+F0AzjdZ6f7mDoPvMBApAAAFgGT2DoCp7mKl+74A/JmBSAEAKAAk0xla1a2PZrX7dPhfs+V9DEMKAEABIFl6I6AsZrX705RaaTAMKQAABYBkqQA461ntvr39/3OGIQUAoACQbOWviYQ+mBXvL5ObxMnuINjBMKQAABQAksXNgGIGK95vv/7TqxmEFACAAkCyG1tey4r3WwGQdzMIKQAABYBkO6IytflYVr0/FNQNnOkOgWEGIQUAoACQXORyVr1vbv+vZwhSADgTQAEgucoziYSexMrPr8/Vpd/pDgDFEKQAcDaAAkBytxnQliWs/Lz/+k8wAAkFABQAkuvcf4DWB7L68+Nf2vQR7sX/rwxAQgEABYDk4S6Ams/qz48pteIrDD9CAQAFgOQp8lH2AuRe0dXpE90L/1aGH6EAgAJA8ncXwHJWcAbk+G//a9K9DD5CAQAFgOQ7L1+8ceB4zoIc3fpvEOfw2l9CAQAFgPjlK4EmZ0EOaH2ge8G/k6FHKACgABC/ZGeNqT7LmZDtW//iUgYeoQCAAkD8FVM9XWXpYzgbsnTr/9vpD7sXe4eBRygAoAAQP2YTZ0PmVST0oQW14kGGHaEAgAJA/HwnYDFnRGa5w7+JQUcoAKAAEL+/G2BrjZn+CGdFxv7uv4iv/REKACgAJCj5g5EcOIEzY2Imr1Hn8Xd/QgEABYAE6wVBprqrol8fytkx3l/+zulT68RLDDhCAQAFgATw/QDqu7wqeBy//BObj3Uv7A8z3AgFABQAEuQ9ATZfDRy98+u3HFdQK+5lsBEKACgAJAxPBvRwluxfQd3A8e4F/X6GGqEAgAJAQhQnWdGvD+Js2ddt/4ETpq4Rv2WgEQoAKAAkfHsCTPWfl/XrIzhj3jT8650zptaJRxhmhAIACgAJc+7m64F/N6Uu/QX3Iv4yg4xQAEABIFHIs96aifp5M3WNrHEv4NsYYoQCAAoAiVIGDVPGo3i+/EubPmJKbXoDw4tQAEABINF9YZClrqtMbT42Mn/v3/V2vycZXIQCAAoAIZZ6Pm7LkjCfI94X/dyLdYObHQwtQgEABYCQN+b66j5xUtjOj9c2+vFmP0IBAAWAkLfIQNx0vhGGxwULr0l/yL1A38KQIhQAUAAIGX3+HLOcykRCHxy4v/M3iZMLatNJ9+K8nQFFKACgABAyzkcGDVt9yUjqI/1+HhTUirOnrBEmn/AlFABQAAjJXP5mWLK2JuWc4ae1733tsKBOlroX4tsZRoQCAAoAIdnNnXHbuWhVtz46X0N/18Y+2eVegP/CECIUAFAACMltVNxybjNM9cWV9uB7s/p3/cTmY6fUyZmv/W3/RQYPoQAAFADinzwZs+TGuKVWxy35yYp+feh41rP3pr7Cb4uPTq2TsYJaYbkX2UcZNIQCAOyFYcuPM3yID7PdKwWG5fzELQXd7v9fbpjOhYYpS2v6nMleSfDuHBQ3iuunN4g7ptWLx6fWic0MFUIBAEZ9B0CczbAhQQ1DhAQ1BbsKwP8whZDHAjD0IQYJoQAQkuMCUOcWAFPdxRRC/v4EcO3g+xgkhAJASG5TWC+8NfxzphDyVwCSzmkMEkIBICS3mdbgFQDnJ0wh5M2qlDiZQUIoAITkNkUjBUDdzBRC3ly8ceB4BgmhABCS20x3C0DMUt9jCiFvqix9DIOEUAAIyXUBkF4B+C5TCHlTmdKHM0gIBYCQ3Ka4UWjDltcyhZA33rvRGSSEAkBIHgqA6fQxhZDfJwEstYNhQigAhOQuM5uE9t5yyQRCvgvAZoYJoQAQkrvMapE6ZqsGJhDyXQD+wDAhFABCcpe5rdJ7E+BXmUDIdwF4gGFCKACE5C6lbd4eABlnAiHfBeB2hgmhABCSu5R3jDwGuIAJhPwWAFvdxDAhFABCcpeKLumu4cEiJhDyXACkxTAhFABCcpeFa5WuMdU/M4GQ7z8BtDBMCAWAkNxlcbfU8dTgB5hAyKu46XyDYUIoAITkLkt73DWcHDiBCYT83gEw1RcZJoQCQEjusjyphhMJfTATCHkVs5wlDBNCASAkd6nsVYLpg/wXAHuwkGFCKACE5C4rTPUM0wd5V9039CGGCaEAEJKbFNaNvAb4DqYP8m71dfptDBNCASAkN5nRKL0PAV3H9IE/NgJacisDhfgwf3Lzv96vpbglU14MU/UYlnO1l5IWdcecFvH47Bb5ey8zm+Sfi5vFZvcCK6Y1iB0MG8KHgID9F4DHGDYkD3nWHeQ/jtuqI2bKVTFLFhu2/HiVJd+VqbU9r0ueW94hFpe3y6tKWsUNblF4cGaT+GtRvdjOMCL5SEnryB2A1Uwe+KUA/IxhRLKYzXHLuS1uyzr3F3xF3BLnXNavj8j3uq8w9TvKOtIVZW2iraQtfc+sJvFyYb0YZkiRbGZe58h3AMqYPPBHAbDltQwpkqEo9+L23+6gb4uZ6oIgvu2sokNMK22VXXNa5f3FTWJrYR1Di2TyNcCS1wDDRwXAlGsYXGSc2e7mnpgtrzEsZ0plSh8etvOjtF0fW9YhLpvTmv5VcWN6oIAhRiaQJT1KZ/LPXMBE7wCsZJCR0Uc+5v3Cd4vjrCpLHxO186W8XZ5S2ioT3h2C6Y1ykKFGxpILN6gdFf36ICYPfCFmybkMNbKf3B031VdXmIPv54x50x2CTlEwt03+uLhJDDDgyH5fAtSrnuesgW/UmOmPMODIm7LN2xwat2QNtytHz3vqoLRVfbe4WbzCnwrI3l4C5J5bd3KmwDe8v9u6i3InQ4+4udd7JG9lz5bjODMmpqJ5y3u8Rw+99xIw/IiX4kbhnmNOkrMD/toHMPJMNgMwonkxZqlW704QZ0KW7gy0D5TObpX3TasXOxmEEX4HQNvIHYDLOSPgswIg/4tBGLnd+z+I27LESOpDOANyY05SH1naLutmNosX+BNB9DK/U+q4KedwJsBfBcBWaxmKkUjae/NeTco5g1WfX2WdzvnemwkL6iUvH4pIFq2TOtY7eCarH77ivZqS4RjqPO+WvCsqU5uPZbX7S3nL5tNL2uSPptXz/YKwZ/kGtZ07bvCdmC2mMyRDmd/GTGcZF51g/HmgpF1umNEgFcMypI8Amur3rHT4TnWf8x6GZajykPd+B1Z2MJW0iubpDXKIoRmeTKsX2rDVLaxu+E4ioSe5Q8NhcAY+j3sf3DlA6wNZ1cFWmdCHl7SrTfxpICSfAW4eeQKghZUNXzIs52EGaGDzsmHJi90idzArOVy8rxaWtMrb+FJhsFPaJnTMkjFWNHwpZqnvMkiD+MY+1cLmvvBb2LTlfd67BHh8MLhfATRs9WlWMnx6B0B9hYEanIx8djclPsrKjZb57ely7zPFDNXAPQGw47J+fQQrGP68A2APFjJYgxBny8itRP7OH11aT/L2BxTyDoHAJGYOPsbChX/vACQHTmC4+v5TvD8zks5prFZ4yrvUed6Hhxiw/s6MxpENgJtYsfB3CbDVcwxZX0Z5H+lhhWJvvI8OFdYxaP2auW0jf/+/jJUKfxcAS93MsPVdnohb4hxWJ95KWUe6gncH+DMLuqSu6XMms0rh8wIgEwxcX+X6Vd36aFYmRmNRrThpVrN8jqHrryxdL4d5Uge+N/J1OIauH7LTsJyvsSIxHqWt8qcMXh+9ArhX/YFVCf/fAUg6pzF88x4Rs1QZqxET+pNAu2ooYF9A3lPU4L0ASH2PFYmA/BnAe6scgzhPeYWXhSBjJaBLVvEGwTxvAGyVOmY6V7IaEYwCYKtbGMR5yQs1ZvojrEBk0rz2gdKierGTYZy/DYAx2/kCKxFBKQBXMIxznudXmIPvZ/UhG0o7RQEfFcpPLtygtvEGQARGzFafYSDn9kM+sd70h1l5yOqfA9oGSqZxJyCn8fZgGKa6h9WHwFjdpQ/j08A5y0Dckp9k1SEXytvFssI6Xh+cq8z2PgFsqkZWHgIlbqq7GM7Zf9Qvbso5rDbktAS0yWsYzrnJ/E6pOccRvAJgyzoGdNY/6vNvrDTkQ0mrvI0BnZsXAK0wt76DFYdgFYCUnMmAzmq+zypDPs1qln9hSGfx7//eC4BM51FWGgJnZc+W43a9jY5hnYX8hV8FyLeFTVveV9TAkwHZSnGT9wIgZz0rDYFkWM7vGNaZ/7t/zB4sZHXBD8rb1RUM6+ykvEN6BWAJqwwBLQBqHQM7s4lZ0mRlwVd/CmgRTzKwM5/F3UqvstW7WWEIJHdYzWVoZzSbazalT2RlwU8qutJn8brgLPz933IeY3UhsKosfYw7tIYY3BnLpawq+FFJq/wBgztzmdXs3f5XrawsBPsugK3uYHBn5lW/3guWWFHwoyVd+m28KjhzqeiS7jk/WMTKQrALgOlcyfCeeOKW+jKrCT6/C3Azwztj7/8frEzpw1lVCDTDlh9ngE/8E7/LNumjWE3ws7L1+kT2Akw80+qF95Kvn7CiEHxaH+gOsJcY4hP69d/NQkIQzGmRDzPEJ5aSNqljprqE1YRQcAfYdQzy8ae6T53HKkIQlLTLaob4BB//Wye1kRr6IKsJoRAznWUM8nHnKVYQgqSoUW5jkI8/K3rVn1lFCI3qPnGSO8iGGebjefGP6mIFIUjmtMjfMsjHl5lNI3//T7KKECruMPs1A30cMWUpqwdBUtah6hnm43z8r1N65/wsVhHCVQBsdQUDfezv/a9MbT6W1YMgKW/ZfDrDfLyP/8k07/tA6MRTgx9goI85z7ByEERFDYJ9AGPMjEb317+tvsPqQTjvAvB1wDGGZ4ERTDObxMsM9bFl3sjX/9Q8Vg9CWgBkgqE+prSzahBEc1rlAwz1sWV5UjlGUh/J6kEoVfeJsxnqY8pXWDUIorlt8ocM9dFneoPwbv/fxMpBuO8CmOppBvto3wAoa1gxCKLSVvVdBvvoUz5y+99ZwspBuAuApZoY7qMsALazlBWDICrrkOsZ7KPPsg1ym5F89e2sHISa91pbhvsoC0CfKmfFIJAFoE00MdhHl6J6oWOm82NWDcJv18eB/sSAH9VbAMtYMAhkAWhXDQz30aWsfeT2fyWrBpHgDrd6BjwFABQAIvTyDcqpsvQxrBpEQtweOosBTwEABYCX//DyH0TzLsC9DHkKACgAkX73f5fUMVtMZ8UgWgXAVl9iyFMAQAGIcqp61YsV/fogVgwipWZT+kR3yG1n0FMAQAGIYma1SO88b2K1IJLilrqVQU8BAAUgilm0zi0AKfFRVgsiyR1wCxj0FABQAKKWgjqhV5jyt6wURFZlSh9uWM4Whj0FABSAKKWkbeT2/6WsFESaYTp9DHsKACgAUcrSHrW9uk+cxEpBpMVS8lMMewoAKACR+fKf9+x/SvWzSoADeCcABQAUgOhkwVrv9r8zhVUCeHcBTKeKgU8BAAUgEpv/+sSTrBBg9x2ApD7SHXibGfoUAFAAQr35r1XquKVWs0KAPcRt1cHQpwCAAhDmLNuglJF89e2sEGDPuwCpoQ+6Q2+YwU8BAAUgjCluEu6vf6eX1QHsrQRY6nYGPwUAFIAw5oJ1UteY8lxWB7C3AmCqCgY/BQAUgLClsF7omKl+zcoA9lUAkvoQd/C9wPCnAIACEKaUtUu3ADjLWBnAW5UA2/k6w58CAApAmHLRrs/+HsrKAN7CCnPrO9zhJygAFABQAMKQua1SG7a6glUBjOYugKU6KQAUAFAAwpDlG5w0j/4Bo1STcs5wB+B2CgAFABSAIGdWy8hX/5pYEcDY7gJcTwGgAIACEPSv/tVsVKeyIoAxqO6Tn6AAUABAAQhqZjR6L/6RKVYDMA5xS/2CAgBQAAL54p9uORzrTX+Y1QCMQ8ySxRQAgAIQtBQ1CO+Tvz9kJQDjpfWB7kn0OwoAQAEIUhZ0SR03nc+zEoAJiNtqIQUAoAAEJdNGXvvr/IpVAExQIqEnGZbzMAUAoAAE5dd/zHa+wCoAMnMXYD4FAKAA+P5v/+6v/xWmczsrAMiUkb0A6iEKAEAB8Puv/xpTfZYVAGTyLkCfKqcAABQAP//6j5nOTzn6QDbuApjqQQoAQAHwYxauHfnoz6c5+kA27gLYsoQCAFAAfPrr/8cceSCbdwEsdT8FAKAA+OrX/zo1HLfkJznyQBbFbDmbAgBQAPyS6Q1CV5vqFo46kAPucLyTAgBQAPyQxd1yh5Ea+iBHHcgB71abOyB3UgAACkA+M7PJ++Kf6uaIA7m8C2Cr71AAAApAPrNsvUpfZKffyREHcmiF6ZzuDkmHAgBQAPKRua3S++Lfv3G0gXzcBTBVIwUAoADkPHVCVyblXypT+nCONpCPApB89e3uoHyZAgBQAHKZ8g7317+pFnOkgTyKW2o1BQCgAOQqhd4Hf/rkA957STjSQF7vAuhD3GH5JAUAoADk6oM/1SnncxxlwA93AUw5hwIAUACynRmN0jsvv88RBvx0J8BWt1AAAApANrN0vZLVfeqfOMKAj1T3Oe9xh6YKUwGI27KOI4sgKmlL3xO24V/S5j32py7n6AI+FDedb4TsLsBOw5SzOLIIktJWmQjdxr86oat6nccSCX0wRxjwodVd+rAQbgjcvMIcfD9HF4EY/p2ioLBeDIdu499aOWxYzvkcYcDPdwH6BqeFb0Og8/CyTfooji78rGy9PnF6g3TCNvyLG4U2bHktRxgIQgmw1I2hKwGmuoEjCz+b1SyfC+f7/uVW3vcPBETNRnWqOzQHQvho4Fc4uvCjuW3yh2Ec/qVtwtuMa3CEgWDdBfhyCAvAjpgl53J04Scl7XJNGIf/tF1v/LsvkdCTOMpAgFT064NilvpNCEuAMGz5cY4w/KC8QywuqAvnG/8Wd8ttcXvoLI4yEMS7AO7J6w7MwRCWgOd5GQnyP/zlp9xfyTvC+qnfmOlcyVEGAsywnK+F9GNBv13VrY/mCCMfFtWKk2Y0SBXaW/+98kGe+QcCzjuJ47a6L5TfCjCdH3l/6uAoI5fcNXfozEbx17B+7Me79V9jpj/CkQbCcBcgJT7qDsyhUN4JsKXFEUYuzW4RT4Z1+M9p9Z75d77OUQbCVAIs56qQ/inASxNHGLkwp1X+JqzD/7Vd/w9x6x8IWwFI6kMMUz0Y2hJgqys4ysimkjb5o7AOfy8XrJPbvbuFHGkghGIp8TF3WG4LaQkYjlvOCo4ysqGsXV4b5uE/17v1bzlXcaSBMJcA07kyxH8K2BHvU+UcZWR0+LeJpjAP/6J6oauS6l5u/QMh573Vyx2Ut4e4BAzFbDmbI42MDP8O+a2pdeEd/l6W9jiius95D0cbiIDXvhXwtxCXgEHDlLM40piI0laZKKgN9/Av75A6bqtFHG0gQtwBWRriAjBSAuIpOZMjjXEN/055ddiHv/eZ35ilNnG0gSiWANvZEPIS4MQsWcyRxliUt8urCkJ+27+wTurKXvlH3qYJRNRl/foIw5KPhb0ExE0xg6ONUQ3/DvmNsA//XY/8qe1xS36SIw5EWNwS54T0g0Fv2BgYt9V8jjbeeviLlqkRGP7eh354bwaAEe6AvDTkBWDXI4K8JwD7EPbn/HdneoP3tj9xxwFaH8hRB7CrBNjqpgiUgGE3l3O0saeSNnlLFIa/96eNZevVSzWb0idy1AG8bvV1+m3ucHwiAiXAjazliMMztyV9dxSGv5eFa9X26j51HkcdwD+I20NnuQMyHYUSELOc9XxKOLq8T/rOaRGPRmX4l7Z5f/eXKznyAPYpZqkF0bgL4MX5IY9BRc+iWnHSzGbxUlSGv/e8v/vL/zqOPID9MkzVFp0SoB6osuS7OOrRMK9LnjujUaqoDH/vE78XbXAe9R755egD2C/voyBxU90VoRLwZz6DGn7z29PlRfViR1SG/8h7/terNO/5BzAmq1LiZHcwvhCdEiC3xmwxnSMfTiUd8msF9WI4SsN/fpcc5nXYAMbFsJzzvZfoROhOwHYeEwzh8G+TtxREaPB7mdMidMx2vsnRBzBuMcupjFAB2BVbfcdI6iM5+sG2qEWfMKtFPjs1YsPf2/S3wlT9vOwHQAbuBKj6yJUASz2wwnRO5+gH9Fd/p/pMlDb77bnpr7JX3VeZ0oezCgBMnPtLwh2I349gCXi52namsgCCpbRNXO4Owp1RG/7em/6WJ9XzvOkPQGbvAiT1kXFb3RfBErA9ZjpXcjs1EEV10pxW+V9R+3v/7izpdmSsN/1hFgKALJQAecrII3PRKwHeUwL/xS8r/6roSp9V3Cj+NjWiw39Bl9xpWINFrAQAWRNLiY9F5XXBe8kL/EnAf7xb/kURvOW/52t+Y6ZcxUoAkP0SYMm57jDcGdESsCNuym/xHQEf/Orv14fObUn/MqqD38usZnf4W6qL1QAgZwxLXhzRAjAS702JvGEtf8o7nM8XN4otUR7+MxqFruqVN1NGAeSjBCSiXALcDMQsGWMl5FZJu9pUWCeHozz8pzd4w1/9anWXPowVASAv4pbqjngJGPmqoLdBktWQXaXt4mNR+orfWz7rn5S/q7L0MawKAHmTSOhJhqluoASoV7xPKbMisjb82wsj9i7/vaXQe9Z/g3r2Ijv9TlYFgLzzNmPFbPlTSsDIa4Rv4vPCmeN9vndWs3w+6oN/9/Bf1iP/yhsqAfjKsk36KPcX8G8oASN/Ethi2HIlLw+aAK0nlbSJ6wvr5TDDX2jv5UZLetRA3B46i8UBwHcu3jhwvDsAH6cAvJ67eTPb2JW1DZQUN4kBBv/fc8E6NWjY6tOsDgC+tcpW73YH3zMM/9ezzTDlmsv69RGsjrdWYep3zG1N/3cBA/8NWbhWbovZg4WsEAC+ZySd0ygB/7A34Lm4rRayOvb1q190TKsX2xn4//CK32284hdAoHgbldzB9weG/z/kl97rlFkhu5R0pBcWN0X7hT77HP6dcnvMFtNZJQACpyblnOEOvGcZ+v/4OmHDcpJGcuCEyP7ibx04c3areIxBv/dUdMntcVPM4CoCIOgl4I8M/b1ms/epYe9Ty1FZD4ta9AneJ3t5pv+th3/MksVcPQAEnvfOfO9v4Az8fX9lMG7JGrcIHBLWNTDHLTmlreq7Uf5q36h/+afkTK4aAEJjpT34XnfQ/Ylh/5b5fdxWi0L1/gCtJ5W2ybVFDXIbA34/w79TbjdMOYurBYBw3gkw1dMM+v3EVA/GLFUW6CLgDv6ydtVQ3CgVw31UG/6G+Js/gFBblRInu0PuIQb9qN4o+LB3RyBIn3v1Xgvt/eKf3iAdBvvo3vB3wTolYrb6DFcHAKG3smfLcd5b8hjwo86Tcdu5yM97BEb+xt8uLXfwDzHYRzn864Re0i03V/eJs7kqAIgMb+e7+wv3Jwz3McV7muLS1dfpt/nlOC5vU6eWtMofFDXwEp+xfdhH6qXr5QvGtYPv42oAIIol4JC4pW5ksI81cqv733ZvT0W+jl15h/P5Oa3ygQIe5xtzptV7n/R1njaS8hSuAgAiK5HQkwzb2cBQH98LhdwC9R9x0/l8zgZ/u1o9q1nwed5xpsgd/pUb5G9XmFvfwdkPAK64LesY6BPKQ4apvliZ2nxsxod+y+bTS1tlPxv7JpYZjdId/uou79PZnPEAsIeYJWPuINvOMJ9QlJtNhuWcP+HB3yZXzW6SzxTWMbwnmlnNUq9Iqk2JhD6YMx0A9lYC7MFCd3htYZBnJI/HTPWvNRvVqaP996/olJ+Y2yZvncFu/oylpE0Oe6985uwGgP2I20Nn8RGhjGanm9vjlrNib38i8G7xl7XLa4ubxKsM7MxmfpfaFu9T5ZzVADBKNZvSJ8Zt9T8M74xn0M0PYpZaUNou2mc2ixcKGNRZecZ/0Tq5OZaSn+JsBoAxuqxfH8FjgtkLgzp7j/ktW6+eNpLOaZzFADBeWh9oWLKWgU0BCEKmezv9k84vqyx9DCcvAGSAYarF7tASDG4KgF8zp0Xoqj7RGaRvNwBAMEpASnzU+2Quw5sC4LvNfp1q0EipCs5SAMhWCUi++va4pW5lgFMAfPFO/3qhF3erP3lPrnB2AkC2jewLcK567fE2hjkFIC8pbhS6ste5jb/3A0COxU0xwx1krzDMKQD5eLlPVZ9zFWchAOSJ90U8d5g9wECnAOQkdUIvWCvT3hsrOfsAIM8qU/pww1ZrGeoUgGw/4rdkvbqvuk/9E2cdAPhIzJaz3cH2V4Y7BSDTKW2TO6uSMuF9vpozDQB8yEjKU9wi8FMGPAUgI7v8d73S9yXDVp/m7AIAvxt5SkBd7maIQU8BGPcnfJukvnC9+g92+QNA0O4G2PLj7qB7gmFPARhr5nWKwZjpLOMsAoCAWrZJH2VYTpKBTwEYTYoahF7aIx/2ni7h7AGAEIj3DU5zh94fGfwUgH2lrF1ur+oT/8ZGPwAImVXd+mh38K3jDYIUgDc/3uf+6n/QuHbwfZwlABBi1Snnc3xUiALgpbxdDlX2qku8jaOcGQAQAZf16yPcIdjiZgcFIHqZsetX/69XmM7pnA0AEEHe892GJR+lAEQjBd4O/w7pGOZgnNUPAFEvAUl9SNxUX3WHYpoCEOLn+pvdX/3r5c2rUuJkVj0A4HU1G9Wp7mC8ngIQrkyrF3rhWvmcYTnns8oBAPsuAn3OZMN2HqEABP92f3mHHKxKissr+vVBrGwAwH4lEvpgw1aXub8at1AAAni7v0XqZRvkTRfZ6XeymgEAY+b9vThmyY3uwBymAATjTX6LuuUz1X3qPFYvAGDCqvvkJwxL/owC4NOv9tULPb9LvrrCdKp4ph8AkHExe7DQHZ73UwB89Hf+dqmqkvJrFf36UFYoACC7RcBUFwT9bYJBH/4lbXL7hUnRufo6/TZWJAAgZ7z3B8RMucodpi9SAHKX2S1ieOl6dSPP8wMA8mrkk8O283V3qL5MAcjqi3yGF/fIn8V6B89k1QEAfFUE4pb6sjtcX6AAZC5zmsXOxT3i1nhq8AOsMgCAb63u0ocZtlzpDtlnKQDjz9xWuWPZBnWDkXROY1UBAAJj5GVCpnOhO2wfpwCMflf/3Da5ffkGaVf3iZNYRQCAIBeBSXFbzXeH7r0UgH08x18ndFmbdJavl2sv3jhwPKsGABAqI58fttV33AE8RAEQush7gU+nfP7CpPpSZUofzgoBAISa9wibYTlX53PDYD4H/8wWObxwnbw7bjqfZzUAAKJ3R2DkXQIjLxW6J+wFYPdt/qU9ss/79DJHHwAArwzY8uOG5SRz9QXCXA3+GY1Cz+uQz1yUlCu9JyQ40gAA7IX3t/BddwWcn7iDekcQC8C0eqFL29TAom7ZW93nvIejCgDAWO4KJOUp7rD+imE7j/i9ABTsek3vjoq14o5Y72AhRw8AgAyIW/KThq3WusP7JT8VgGLvFn+nfHr5BrXaSOojOVIAAGSB916BmO18IW6rDrcQPJePAjCzWQzP6xBPLekRV/LCHgAA8iCWkp8yTLnGHepPZLMAzGqWO+d1ioeWblCXGMlX386/PAAAPmGkhj4YN51vuAP+126GJ1IACurcod8it1V0yf9Z3iuruL0PAEAAVKY2HzvyCmLb2WCY6unRFIDiJjFc1ib/uLBTmitM9dkDtD6Qf0kAAALMexwvZslY3FI3ugXgFW/gT28QuqRVvFLRKW9dviE9n1/5AACEXMXagbneK4n5lwAAAAAAAAAAAAAAAAAAAAAAAAAAAAAAAAAAAAAAAAAAAAAAAAAAAAAAAAAAAAAAAAAAAAAAAAAAAAAAAAAAAAAAAAAAAAAAAAAAAAAAAAAAAAAAAAAAAAAAAAAAAAAAAAAAAAAAAAAAAAAAAAAAAAAAAAAAAAAAAAAAAAAAAMi3/w94QSjnTH5dqQAAAABJRU5ErkJggg==;" vertex="1" parent="70">
                    <mxGeometry x="15" y="9" width="42" height="42" as="geometry"/>
                </mxCell>
            </root>
        </mxGraphModel>
    </diagram>
</mxfile>